<?xml version="1.0" encoding="UTF-8" standalone="no"?> <!-- Created with Inkscape (http://www.inkscape.org/) --> <svg xmlns:dc="http://purl.org/dc/elements/1.1/" xmlns:cc="http://creativecommons.org/ns#" xmlns:rdf="http://www.w3.org/1999/02/22-rdf-syntax-ns#" xmlns:svg="http://www.w3.org/2000/svg" xmlns="http://www.w3.org/2000/svg" xmlns:sodipodi="http://sodipodi.sourceforge.net/DTD/sodipodi-0.dtd" xmlns:inkscape="http://www.inkscape.org/namespaces/inkscape" version="1.1" id="svg2" xml:space="preserve" width="738.09265" height="697.69824" viewBox="0 0 738.09264 697.69824" sodipodi:docname="FRENCHFAB_20200113_TITRE.svg" inkscape:version="0.92.3 (2405546, 2018-03-11)"><metadata id="metadata8"></metadata><defs id="defs6"><clipPath id="clipPath18"><path d="M 0,0 H 841.89 V 595.276 H 0 Z" id="path16" inkscape:connector-curvature="0"></path></clipPath><clipPath id="clipPath26"><path d="M -7.05435,632.421 H 596.276 V -37.0593 H -7.05435 Z" id="path24" inkscape:connector-curvature="0"></path></clipPath><clipPath id="clipPath158"><path d="M 36,36 H 589.57 V 559.274 H 36 Z" id="path156" inkscape:connector-curvature="0"></path></clipPath><clipPath id="clipPath174"><path d="M 36,36 H 589.57 V 559.275 H 36 Z" id="path172" inkscape:connector-curvature="0"></path></clipPath><clipPath id="clipPath202"><path d="m 183.225,257.453 19.105,-42.373 33.209,-2.62 12.639,41.378 z" id="path200" inkscape:connector-curvature="0"></path></clipPath><linearGradient x1="0" y1="0" x2="1" y2="0" gradientUnits="userSpaceOnUse" gradientTransform="matrix(7.9170451,-59.377781,-59.377781,-7.9170451,212.0865,282.75279)" spreadMethod="pad" id="linearGradient212"><stop style="stop-opacity:1;stop-color:#42a2d8" offset="0" id="stop208"></stop><stop style="stop-opacity:1;stop-color:#2a61a5" offset="1" id="stop210"></stop></linearGradient><clipPath id="clipPath222"><path d="m 202.33,215.08 51.105,-48.692 h 13.587 l -31.483,46.072 z" id="path220" inkscape:connector-curvature="0"></path></clipPath><linearGradient x1="0" y1="0" x2="1" y2="0" gradientUnits="userSpaceOnUse" gradientTransform="matrix(9.9849354,-69.894523,-69.894523,-9.9849354,225.53058,254.75208)" spreadMethod="pad" id="linearGradient232"><stop style="stop-opacity:1;stop-color:#42a2d8" offset="0" id="stop228"></stop><stop style="stop-opacity:1;stop-color:#2a61a5" offset="1" id="stop230"></stop></linearGradient><clipPath id="clipPath242"><path d="m 231.469,166.388 h 21.966 l -11.951,11.386 z" id="path240" inkscape:connector-curvature="0"></path></clipPath><linearGradient x1="0" y1="0" x2="1" y2="0" gradientUnits="userSpaceOnUse" gradientTransform="matrix(0,-52.485133,-52.485133,0,242.45143,217.66895)" spreadMethod="pad" id="linearGradient252"><stop style="stop-opacity:1;stop-color:#42a2d8" offset="0" id="stop248"></stop><stop style="stop-opacity:1;stop-color:#2a61a5" offset="1" id="stop250"></stop></linearGradient><clipPath id="clipPath262"><path d="m 254.689,184.433 12.333,-18.045 h 33.515 z" id="path260" inkscape:connector-curvature="0"></path></clipPath><linearGradient x1="0" y1="0" x2="1" y2="0" gradientUnits="userSpaceOnUse" gradientTransform="matrix(0,-52.485133,-52.485133,0,277.61353,217.66895)" spreadMethod="pad" id="linearGradient272"><stop style="stop-opacity:1;stop-color:#42a2d8" offset="0" id="stop268"></stop><stop style="stop-opacity:1;stop-color:#2a61a5" offset="1" id="stop270"></stop></linearGradient><clipPath id="clipPath282"><path d="M 36,36 H 589.57 V 559.275 H 36 Z" id="path280" inkscape:connector-curvature="0"></path></clipPath><clipPath id="clipPath294"><path d="m 168.365,526.609 46.033,-31.704 -46.033,12.499 v -26.947 l 32.703,-31.349 -33.221,9.019 v -29.422 l 79.639,-41.741 44.523,51.516 -30.338,87.442 -93.306,33.352 z" id="path292" inkscape:connector-curvature="0"></path></clipPath><linearGradient x1="0" y1="0" x2="1" y2="0" gradientUnits="userSpaceOnUse" gradientTransform="matrix(124.16288,0,0,-124.16288,167.84776,473.11914)" spreadMethod="pad" id="linearGradient304"><stop style="stop-opacity:1;stop-color:#42a2d8" offset="0" id="stop300"></stop><stop style="stop-opacity:1;stop-color:#2a61a5" offset="1" id="stop302"></stop></linearGradient><clipPath id="clipPath314"><path d="m 290.552,409.207 51.665,-85.043 13.365,136.205 -26.733,25.106 z" id="path312" inkscape:connector-curvature="0"></path></clipPath><linearGradient x1="0" y1="0" x2="1" y2="0" gradientUnits="userSpaceOnUse" gradientTransform="matrix(68.844404,-0.4276059,-0.4276059,-68.844404,335.54114,404.81956)" spreadMethod="pad" id="linearGradient324"><stop style="stop-opacity:1;stop-color:#42a2d8" offset="0" id="stop320"></stop><stop style="stop-opacity:1;stop-color:#2a61a5" offset="1" id="stop322"></stop></linearGradient><clipPath id="clipPath334"><path d="m 192.008,319.709 71.922,-29.171 78.287,33.626 -51.665,85.043 z" id="path332" inkscape:connector-curvature="0"></path></clipPath><linearGradient x1="0" y1="0" x2="1" y2="0" gradientUnits="userSpaceOnUse" gradientTransform="matrix(113.49755,-29.519612,-29.519612,-113.49755,225.33727,363.37206)" spreadMethod="pad" id="linearGradient344"><stop style="stop-opacity:1;stop-color:#42a2d8" offset="0" id="stop340"></stop><stop style="stop-opacity:1;stop-color:#2a61a5" offset="1" id="stop342"></stop></linearGradient><clipPath id="clipPath354"><path d="m 263.93,290.538 -15.752,-36.7 94.039,70.326 z" id="path352" inkscape:connector-curvature="0"></path></clipPath><linearGradient x1="0" y1="0" x2="1" y2="0" gradientUnits="userSpaceOnUse" gradientTransform="matrix(94.038168,0,0,-94.038168,248.17694,288.99996)" spreadMethod="pad" id="linearGradient364"><stop style="stop-opacity:1;stop-color:#42a2d8" offset="0" id="stop360"></stop><stop style="stop-opacity:1;stop-color:#2a61a5" offset="1" id="stop362"></stop></linearGradient><clipPath id="clipPath374"><path d="m 192.008,319.709 98.544,89.498 -11.029,24.05 z" id="path372" inkscape:connector-curvature="0"></path></clipPath><linearGradient x1="0" y1="0" x2="1" y2="0" gradientUnits="userSpaceOnUse" gradientTransform="matrix(-63.285637,-36.774024,-36.774024,63.285637,279.28357,401.77045)" spreadMethod="pad" id="linearGradient384"><stop style="stop-opacity:1;stop-color:#42a2d8" offset="0" id="stop380"></stop><stop style="stop-opacity:1;stop-color:#2a61a5" offset="1" id="stop382"></stop></linearGradient><clipPath id="clipPath394"><path d="m 279.523,433.257 11.029,-24.05 38.297,76.268 z" id="path392" inkscape:connector-curvature="0"></path></clipPath><linearGradient x1="0" y1="0" x2="1" y2="0" gradientUnits="userSpaceOnUse" gradientTransform="matrix(49.326402,0,0,-49.326402,279.52284,447.34087)" spreadMethod="pad" id="linearGradient404"><stop style="stop-opacity:1;stop-color:#42a2d8" offset="0" id="stop400"></stop><stop style="stop-opacity:1;stop-color:#2a61a5" offset="1" id="stop402"></stop></linearGradient><clipPath id="clipPath414"><path d="m 183.225,257.453 64.953,-3.615 15.752,36.7 -71.922,29.171 z" id="path412" inkscape:connector-curvature="0"></path></clipPath><linearGradient x1="0" y1="0" x2="1" y2="0" gradientUnits="userSpaceOnUse" gradientTransform="matrix(-4.0708202,-44.270087,-44.270087,4.0708202,226.85755,309.67213)" spreadMethod="pad" id="linearGradient424"><stop style="stop-opacity:1;stop-color:#42a2d8" offset="0" id="stop420"></stop><stop style="stop-opacity:1;stop-color:#2a61a5" offset="1" id="stop422"></stop></linearGradient><clipPath id="clipPath434"><path d="m 328.849,485.475 26.733,-25.106 19.092,24.402 -32.457,14.422 z" id="path432" inkscape:connector-curvature="0"></path></clipPath><linearGradient x1="0" y1="0" x2="1" y2="0" gradientUnits="userSpaceOnUse" gradientTransform="matrix(45.825766,0,0,-45.825766,328.849,479.7809)" spreadMethod="pad" id="linearGradient444"><stop style="stop-opacity:1;stop-color:#42a2d8" offset="0" id="stop440"></stop><stop style="stop-opacity:1;stop-color:#2a61a5" offset="1" id="stop442"></stop></linearGradient><clipPath id="clipPath454"><path d="M 355.582,460.369 342.217,324.164 374.674,484.771 Z" id="path452" inkscape:connector-curvature="0"></path></clipPath><linearGradient x1="0" y1="0" x2="1" y2="0" gradientUnits="userSpaceOnUse" gradientTransform="matrix(-50.884951,57.726638,57.726638,50.884951,400.02453,357.29911)" spreadMethod="pad" id="linearGradient464"><stop style="stop-opacity:1;stop-color:#42a2d8" offset="0" id="stop460"></stop><stop style="stop-opacity:1;stop-color:#2a61a5" offset="1" id="stop462"></stop></linearGradient><clipPath id="clipPath474"><path d="m 342.217,499.193 32.457,-14.422 -16.228,36.548 z" id="path472" inkscape:connector-curvature="0"></path></clipPath><linearGradient x1="0" y1="0" x2="1" y2="0" gradientUnits="userSpaceOnUse" gradientTransform="matrix(32.459897,0,0,-32.459897,342.21418,503.04479)" spreadMethod="pad" id="linearGradient484"><stop style="stop-opacity:1;stop-color:#42a2d8" offset="0" id="stop480"></stop><stop style="stop-opacity:1;stop-color:#2a61a5" offset="1" id="stop482"></stop></linearGradient><clipPath id="clipPath494"><path d="m 358.446,521.319 8.115,-18.275 16.387,24.522 z" id="path492" inkscape:connector-curvature="0"></path></clipPath><linearGradient x1="0" y1="0" x2="1" y2="0" gradientUnits="userSpaceOnUse" gradientTransform="matrix(24.503972,0,0,-24.503972,358.44564,515.30574)" spreadMethod="pad" id="linearGradient504"><stop style="stop-opacity:1;stop-color:#42a2d8" offset="0" id="stop500"></stop><stop style="stop-opacity:1;stop-color:#2a61a5" offset="1" id="stop502"></stop></linearGradient><clipPath id="clipPath514"><path d="m 366.561,503.044 8.113,-18.273 15.275,0.704 z" id="path512" inkscape:connector-curvature="0"></path></clipPath><linearGradient x1="0" y1="0" x2="1" y2="0" gradientUnits="userSpaceOnUse" gradientTransform="matrix(23.390233,0,0,-23.390233,366.55902,493.90787)" spreadMethod="pad" id="linearGradient524"><stop style="stop-opacity:1;stop-color:#42a2d8" offset="0" id="stop520"></stop><stop style="stop-opacity:1;stop-color:#2a61a5" offset="1" id="stop522"></stop></linearGradient><clipPath id="clipPath534"><path d="m 323.758,537.672 -22.278,-3.244 40.737,-35.235 16.229,22.126 -27.052,32.706 z" id="path532" inkscape:connector-curvature="0"></path></clipPath><linearGradient x1="0" y1="0" x2="1" y2="0" gradientUnits="userSpaceOnUse" gradientTransform="matrix(56.963872,0,0,-56.963872,301.48225,526.60897)" spreadMethod="pad" id="linearGradient546"><stop style="stop-opacity:1;stop-color:#41a0d8" offset="0" id="stop540"></stop><stop style="stop-opacity:1;stop-color:#3071af" offset="0.999782" id="stop542"></stop><stop style="stop-opacity:1;stop-color:#3071af" offset="1" id="stop544"></stop></linearGradient><clipPath id="clipPath556"><path d="m 301.48,513.431 -14.638,-10.387 42.007,-17.569 13.368,13.718 -40.737,35.235 z" id="path554" inkscape:connector-curvature="0"></path></clipPath><linearGradient x1="0" y1="0" x2="1" y2="0" gradientUnits="userSpaceOnUse" gradientTransform="matrix(55.37278,0,0,-55.37278,286.84183,509.95131)" spreadMethod="pad" id="linearGradient566"><stop style="stop-opacity:1;stop-color:#42a2d8" offset="0" id="stop562"></stop><stop style="stop-opacity:1;stop-color:#2a61a5" offset="1" id="stop564"></stop></linearGradient><clipPath id="clipPath576"><path d="M 36,36 H 589.57 V 559.275 H 36 Z" id="path574" inkscape:connector-curvature="0"></path></clipPath><clipPath id="clipPath588"><path d="m 125.026,490.52 59.345,-26.417 h -59.345 v -26.945 l 42.16,-22.472 h -42.825 v -29.42 l 102.666,-20.122 52.496,68.113 -34.21,74.697 -120.287,8.021 z" id="path586" inkscape:connector-curvature="0"></path></clipPath><linearGradient x1="0" y1="0" x2="1" y2="0" gradientUnits="userSpaceOnUse" gradientTransform="matrix(-127.74821,46.315056,46.315056,127.74821,215.38639,435.53332)" spreadMethod="pad" id="linearGradient598"><stop style="stop-opacity:1;stop-color:#42a2d8" offset="0" id="stop594"></stop><stop style="stop-opacity:1;stop-color:#2a61a5" offset="1" id="stop596"></stop></linearGradient><clipPath id="clipPath608"><path d="m 125.026,515.975 120.287,-8.021 -3.652,4.01 z" id="path606" inkscape:connector-curvature="0"></path></clipPath><linearGradient x1="0" y1="0" x2="1" y2="0" gradientUnits="userSpaceOnUse" gradientTransform="matrix(120.2866,0,0,-120.2866,125.02613,511.96373)" spreadMethod="pad" id="linearGradient618"><stop style="stop-opacity:1;stop-color:#42a2d8" offset="0" id="stop614"></stop><stop style="stop-opacity:1;stop-color:#2a61a5" offset="1" id="stop616"></stop></linearGradient><clipPath id="clipPath628"><path d="m 125.026,464.103 h 59.345 l -10.082,4.488 z" id="path626" inkscape:connector-curvature="0"></path></clipPath><linearGradient x1="0" y1="0" x2="1" y2="0" gradientUnits="userSpaceOnUse" gradientTransform="matrix(59.344522,0,0,-59.344522,125.02613,466.34737)" spreadMethod="pad" id="linearGradient638"><stop style="stop-opacity:1;stop-color:#42a2d8" offset="0" id="stop634"></stop><stop style="stop-opacity:1;stop-color:#2a61a5" offset="1" id="stop636"></stop></linearGradient><clipPath id="clipPath648"><path d="m 124.361,414.686 h 42.825 l -6.164,3.286 z" id="path646" inkscape:connector-curvature="0"></path></clipPath><linearGradient x1="0" y1="0" x2="1" y2="0" gradientUnits="userSpaceOnUse" gradientTransform="matrix(42.825905,0,0,-42.825905,124.36029,416.32924)" spreadMethod="pad" id="linearGradient658"><stop style="stop-opacity:1;stop-color:#42a2d8" offset="0" id="stop654"></stop><stop style="stop-opacity:1;stop-color:#2a61a5" offset="1" id="stop656"></stop></linearGradient><clipPath id="clipPath668"><path d="m 36,373.081 151.243,-87.148 4.765,33.776 -128.915,67.278 z" id="path666" inkscape:connector-curvature="0"></path></clipPath><linearGradient x1="0" y1="0" x2="1" y2="0" gradientUnits="userSpaceOnUse" gradientTransform="matrix(156.00835,0,0,-156.00835,36.000061,336.46018)" spreadMethod="pad" id="linearGradient678"><stop style="stop-opacity:1;stop-color:#42a2d8" offset="0" id="stop674"></stop><stop style="stop-opacity:1;stop-color:#2a61a5" offset="1" id="stop676"></stop></linearGradient><clipPath id="clipPath688"><path d="m 63.093,386.987 128.915,-67.278 24.271,31.49 z" id="path686" inkscape:connector-curvature="0"></path></clipPath><linearGradient x1="0" y1="0" x2="1" y2="0" gradientUnits="userSpaceOnUse" gradientTransform="matrix(153.18601,0,0,-153.18601,63.09303,353.34838)" spreadMethod="pad" id="linearGradient698"><stop style="stop-opacity:1;stop-color:#42a2d8" offset="0" id="stop694"></stop><stop style="stop-opacity:1;stop-color:#2a61a5" offset="1" id="stop696"></stop></linearGradient><clipPath id="clipPath708"><path d="M 36,292.386 74.349,350.984 36,373.081 Z" id="path706" inkscape:connector-curvature="0"></path></clipPath><linearGradient x1="0" y1="0" x2="1" y2="0" gradientUnits="userSpaceOnUse" gradientTransform="matrix(38.349558,0,0,-38.349558,36.000061,332.7331)" spreadMethod="pad" id="linearGradient718"><stop style="stop-opacity:1;stop-color:#42a2d8" offset="0" id="stop714"></stop><stop style="stop-opacity:1;stop-color:#2a61a5" offset="1" id="stop716"></stop></linearGradient><clipPath id="clipPath728"><path d="M 36,36 H 589.57 V 559.274 H 36 Z" id="path726" inkscape:connector-curvature="0"></path></clipPath><clipPath id="clipPath744"><path d="M 36,36 H 589.57 V 559.275 H 36 Z" id="path742" inkscape:connector-curvature="0"></path></clipPath></defs><g id="g10" inkscape:groupmode="layer" inkscape:label="CHARTEGRAPHIQUE_FRENCHFAB_20200113" transform="matrix(1.3333333,0,0,-1.3333333,-47.999999,745.69865)"><g id="g148" transform="translate(36,272.0457)"><path d="m 0,0 v -107.105 h 36.212 v 13.992 H 15.929 V 0 Z" style="fill:#435660;fill-opacity:1;fill-rule:nonzero;stroke:none" id="path150" inkscape:connector-curvature="0"></path></g><g id="g152"><g id="g154" clip-path="url(#clipPath158)"><g id="g160" transform="translate(103.4651,209.4718)"><path d="m 0,0 c -4.052,-2.414 -6.908,-4.209 -6.908,-8.731 v -21.658 c 0.298,-1.801 1.499,-3.012 3.459,-2.861 1.944,0.299 3.449,1.512 3.449,3.464 z M 14.433,-44.531 H 0.902 C 0,-42.732 0,-40.624 0,-38.655 h -0.301 c -3.004,-4.981 -5.259,-6.931 -11.274,-6.931 -6.3,0 -9.764,3.45 -9.764,9.931 v 28.882 c 0,17.454 20.894,8.273 20.894,30.233 0,2.565 0.597,8.582 -2.86,8.582 -4.199,0 -3.452,-6.931 -3.452,-9.929 V 10.827 h -14.582 v 17.298 c 0,8.879 6.914,14.432 17.89,14.432 10.971,0 17.882,-5.553 17.882,-14.432 z" style="fill:#435660;fill-opacity:1;fill-rule:nonzero;stroke:none" id="path162" inkscape:connector-curvature="0"></path></g><g id="g164" transform="translate(35.9998,38.1031)"><path d="M 0,0 V 107.11 H 35.761 V 93.123 H 15.929 V 65.596 H 35.008 V 51.599 H 15.929 V 0 Z" style="fill:#435660;fill-opacity:1;fill-rule:nonzero;stroke:none" id="path166" inkscape:connector-curvature="0"></path></g></g></g><g id="g168"><g id="g170" clip-path="url(#clipPath174)"><g id="g176" transform="translate(99.2582,100.8471)"><path d="m 0,0 h 3.015 c 5.553,0 6.759,2.996 6.759,6.905 v 19.407 c 0,4.067 -2.411,5.263 -6.012,5.263 H 0 Z m -15.921,-62.744 v 107.11 h 21.03 c 12.776,0 20.586,-4.51 20.586,-18.354 V 10.819 c 0,-7.967 -2.257,-14.59 -15.776,-16.1 V -5.58 c 7.063,-0.899 14.575,-3.301 15.176,-13.08 0.906,-14.293 0,-29.331 2.553,-44.084 h -15.92 c -2.709,12.329 -1.954,28.431 -1.954,40.923 0,6.465 -2.411,9.02 -9.774,8.717 v -49.64 z" style="fill:#435660;fill-opacity:1;fill-rule:nonzero;stroke:none" id="path178" inkscape:connector-curvature="0"></path></g><g id="g180" transform="translate(139.8285,38.1031)"><path d="M 0,0 V 107.11 H 35.467 V 93.123 H 15.936 V 65.596 H 34.709 V 51.599 H 15.936 V 13.994 H 35.76 V 0 Z" style="fill:#435660;fill-opacity:1;fill-rule:nonzero;stroke:none" id="path182" inkscape:connector-curvature="0"></path></g><g id="g184" transform="translate(211.5101,145.2134)"><path d="m 0,0 4.507,-30.834 c 3.61,-19.866 6.154,-40.468 7.512,-60.631 h 0.603 v 5.721 c 0.15,10.379 -0.453,20.916 -0.453,31.29 V 0 H 25.244 V -107.11 H 1.649 l -7.509,53.558 c -2.545,13.239 -3.451,25.262 -4.804,37.914 h -0.599 c 0,-4.666 0.293,-9.324 0.444,-13.856 V -107.11 H -23.896 V 0 Z" style="fill:#435660;fill-opacity:1;fill-rule:nonzero;stroke:none" id="path186" inkscape:connector-curvature="0"></path></g><g id="g188" transform="translate(277.3217,106.1013)"><path d="m 0,0 v 21.813 c 0,5.413 -1.649,6.621 -4.797,6.621 -3.314,0 -4.968,-1.208 -4.968,-6.621 v -72.508 c 0,-5.419 1.654,-6.615 4.968,-6.615 3.148,0 4.797,1.196 4.797,6.615 v 23.166 h 15.928 v -24.522 c 0,-13.99 -10.961,-18.05 -20.887,-18.05 -9.764,0 -20.734,4.06 -20.734,18.05 V 23.16 c 0,13.992 10.97,18.06 20.734,18.06 9.926,0 20.887,-4.068 20.887,-18.06 V 0 Z" style="fill:#435660;fill-opacity:1;fill-rule:nonzero;stroke:none" id="path190" inkscape:connector-curvature="0"></path></g><g id="g192" transform="translate(308.1266,38.1031)"><path d="M 0,0 V 107.11 H 15.932 V 66.041 H 24.79 V 107.11 H 40.72 V 0 H 24.79 V 52.059 H 15.932 V 0 Z" style="fill:#435660;fill-opacity:1;fill-rule:nonzero;stroke:none" id="path194" inkscape:connector-curvature="0"></path></g></g></g><g id="g196"><g id="g198" clip-path="url(#clipPath202)"><g id="g204"><g id="g206"><path d="m 183.225,257.453 19.105,-42.373 33.209,-2.62 12.639,41.378 z" style="fill:url(#linearGradient212);stroke:none" id="path214" inkscape:connector-curvature="0"></path></g></g></g></g><g id="g216"><g id="g218" clip-path="url(#clipPath222)"><g id="g224"><g id="g226"><path d="m 202.33,215.08 51.105,-48.692 h 13.587 l -31.483,46.072 z" style="fill:url(#linearGradient232);stroke:none" id="path234" inkscape:connector-curvature="0"></path></g></g></g></g><g id="g236"><g id="g238" clip-path="url(#clipPath242)"><g id="g244"><g id="g246"><path d="m 231.469,166.388 h 21.966 l -11.951,11.386 z" style="fill:url(#linearGradient252);stroke:none" id="path254" inkscape:connector-curvature="0"></path></g></g></g></g><g id="g256"><g id="g258" clip-path="url(#clipPath262)"><g id="g264"><g id="g266"><path d="m 254.689,184.433 12.333,-18.045 h 33.515 z" style="fill:url(#linearGradient272);stroke:none" id="path274" inkscape:connector-curvature="0"></path></g></g></g></g><g id="g276"><g id="g278" clip-path="url(#clipPath282)"><g id="g284" transform="translate(169.5831,297.1635)"><path d="m 0,0 -19.615,-25.13 -11.348,-47.9 -11.322,4.529 19.928,-50.888 2.037,42.057 11.098,23.551 26.645,5.687 -3.781,8.384 4.018,28.479 z" style="fill:#23548f;fill-opacity:1;fill-rule:nonzero;stroke:none" id="path286" inkscape:connector-curvature="0"></path></g></g></g><g id="g288"><g id="g290" clip-path="url(#clipPath294)"><g id="g296"><g id="g298"><path d="m 168.365,526.609 46.033,-31.704 -46.033,12.499 v -26.947 l 32.703,-31.349 -33.221,9.019 v -29.422 l 79.639,-41.741 44.523,51.516 -30.338,87.442 -93.306,33.352 z" style="fill:url(#linearGradient304);stroke:none" id="path306" inkscape:connector-curvature="0"></path></g></g></g></g><g id="g308"><g id="g310" clip-path="url(#clipPath314)"><g id="g316"><g id="g318"><path d="m 290.552,409.207 51.665,-85.043 13.365,136.205 -26.733,25.106 z" style="fill:url(#linearGradient324);stroke:none" id="path326" inkscape:connector-curvature="0"></path></g></g></g></g><g id="g328"><g id="g330" clip-path="url(#clipPath334)"><g id="g336"><g id="g338"><path d="m 192.008,319.709 71.922,-29.171 78.287,33.626 -51.665,85.043 z" style="fill:url(#linearGradient344);stroke:none" id="path346" inkscape:connector-curvature="0"></path></g></g></g></g><g id="g348"><g id="g350" clip-path="url(#clipPath354)"><g id="g356"><g id="g358"><path d="m 263.93,290.538 -15.752,-36.7 94.039,70.326 z" style="fill:url(#linearGradient364);stroke:none" id="path366" inkscape:connector-curvature="0"></path></g></g></g></g><g id="g368"><g id="g370" clip-path="url(#clipPath374)"><g id="g376"><g id="g378"><path d="m 192.008,319.709 98.544,89.498 -11.029,24.05 z" style="fill:url(#linearGradient384);stroke:none" id="path386" inkscape:connector-curvature="0"></path></g></g></g></g><g id="g388"><g id="g390" clip-path="url(#clipPath394)"><g id="g396"><g id="g398"><path d="m 279.523,433.257 11.029,-24.05 38.297,76.268 z" style="fill:url(#linearGradient404);stroke:none" id="path406" inkscape:connector-curvature="0"></path></g></g></g></g><g id="g408"><g id="g410" clip-path="url(#clipPath414)"><g id="g416"><g id="g418"><path d="m 183.225,257.453 64.953,-3.615 15.752,36.7 -71.922,29.171 z" style="fill:url(#linearGradient424);stroke:none" id="path426" inkscape:connector-curvature="0"></path></g></g></g></g><g id="g428"><g id="g430" clip-path="url(#clipPath434)"><g id="g436"><g id="g438"><path d="m 328.849,485.475 26.733,-25.106 19.092,24.402 -32.457,14.422 z" style="fill:url(#linearGradient444);stroke:none" id="path446" inkscape:connector-curvature="0"></path></g></g></g></g><g id="g448"><g id="g450" clip-path="url(#clipPath454)"><g id="g456"><g id="g458"><path d="M 355.582,460.369 342.217,324.164 374.674,484.771 Z" style="fill:url(#linearGradient464);stroke:none" id="path466" inkscape:connector-curvature="0"></path></g></g></g></g><g id="g468"><g id="g470" clip-path="url(#clipPath474)"><g id="g476"><g id="g478"><path d="m 342.217,499.193 32.457,-14.422 -16.228,36.548 z" style="fill:url(#linearGradient484);stroke:none" id="path486" inkscape:connector-curvature="0"></path></g></g></g></g><g id="g488"><g id="g490" clip-path="url(#clipPath494)"><g id="g496"><g id="g498"><path d="m 358.446,521.319 8.115,-18.275 16.387,24.522 z" style="fill:url(#linearGradient504);stroke:none" id="path506" inkscape:connector-curvature="0"></path></g></g></g></g><g id="g508"><g id="g510" clip-path="url(#clipPath514)"><g id="g516"><g id="g518"><path d="m 366.561,503.044 8.113,-18.273 15.275,0.704 z" style="fill:url(#linearGradient524);stroke:none" id="path526" inkscape:connector-curvature="0"></path></g></g></g></g><g id="g528"><g id="g530" clip-path="url(#clipPath534)"><g id="g536"><g id="g538"><path d="m 323.758,537.672 -22.278,-3.244 40.737,-35.235 16.229,22.126 -27.052,32.706 z" style="fill:url(#linearGradient546);stroke:none" id="path548" inkscape:connector-curvature="0"></path></g></g></g></g><g id="g550"><g id="g552" clip-path="url(#clipPath556)"><g id="g558"><g id="g560"><path d="m 301.48,513.431 -14.638,-10.387 42.007,-17.569 13.368,13.718 -40.737,35.235 z" style="fill:url(#linearGradient566);stroke:none" id="path568" inkscape:connector-curvature="0"></path></g></g></g></g><g id="g570"><g id="g572" clip-path="url(#clipPath576)"><g id="g578" transform="translate(361.3694,503.0446)"><path d="m 0,0 c 0,-3.196 -2.591,-5.788 -5.788,-5.788 -3.196,0 -5.787,2.592 -5.787,5.788 0,3.196 2.591,5.788 5.787,5.788 C -2.591,5.788 0,3.196 0,0" style="fill:#ffffff;fill-opacity:1;fill-rule:nonzero;stroke:none" id="path580" inkscape:connector-curvature="0"></path></g></g></g><g id="g582"><g id="g584" clip-path="url(#clipPath588)"><g id="g590"><g id="g592"><path d="m 125.026,490.52 59.345,-26.417 h -59.345 v -26.945 l 42.16,-22.472 h -42.825 v -29.42 l 102.666,-20.122 52.496,68.113 -34.21,74.697 -120.287,8.021 z" style="fill:url(#linearGradient598);stroke:none" id="path600" inkscape:connector-curvature="0"></path></g></g></g></g><g id="g602"><g id="g604" clip-path="url(#clipPath608)"><g id="g610"><g id="g612"><path d="m 125.026,515.975 120.287,-8.021 -3.652,4.01 z" style="fill:url(#linearGradient618);stroke:none" id="path620" inkscape:connector-curvature="0"></path></g></g></g></g><g id="g622"><g id="g624" clip-path="url(#clipPath628)"><g id="g630"><g id="g632"><path d="m 125.026,464.103 h 59.345 l -10.082,4.488 z" style="fill:url(#linearGradient638);stroke:none" id="path640" inkscape:connector-curvature="0"></path></g></g></g></g><g id="g642"><g id="g644" clip-path="url(#clipPath648)"><g id="g650"><g id="g652"><path d="m 124.361,414.686 h 42.825 l -6.164,3.286 z" style="fill:url(#linearGradient658);stroke:none" id="path660" inkscape:connector-curvature="0"></path></g></g></g></g><g id="g662"><g id="g664" clip-path="url(#clipPath668)"><g id="g670"><g id="g672"><path d="m 36,373.081 151.243,-87.148 4.765,33.776 -128.915,67.278 z" style="fill:url(#linearGradient678);stroke:none" id="path680" inkscape:connector-curvature="0"></path></g></g></g></g><g id="g682"><g id="g684" clip-path="url(#clipPath688)"><g id="g690"><g id="g692"><path d="m 63.093,386.987 128.915,-67.278 24.271,31.49 z" style="fill:url(#linearGradient698);stroke:none" id="path700" inkscape:connector-curvature="0"></path></g></g></g></g><g id="g702"><g id="g704" clip-path="url(#clipPath708)"><g id="g710"><g id="g712"><path d="M 36,292.386 74.349,350.984 36,373.081 Z" style="fill:url(#linearGradient718);stroke:none" id="path720" inkscape:connector-curvature="0"></path></g></g></g></g><g id="g722"><g id="g724" clip-path="url(#clipPath728)"><g id="g730" transform="translate(61.7929,331.7961)"><path d="m 0,0 4.994,-21.849 14.912,36.802 -7.35,4.235 z" style="fill:#23548f;fill-opacity:1;fill-rule:nonzero;stroke:none" id="path732" inkscape:connector-curvature="0"></path></g><g id="g734" transform="translate(35.9998,373.0818)"><path d="m 0,0 38.35,-22.098 -5.238,-8.004 z" style="fill:#23548f;fill-opacity:1;fill-rule:nonzero;stroke:none" id="path736" inkscape:connector-curvature="0"></path></g></g></g><g id="g738"><g id="g740" clip-path="url(#clipPath744)"><g id="g746" transform="translate(369.9781,37.292)"><path d="M 0,0 V 177.644 H 57.329 V 154.443 H 24.433 V 108.785 H 56.088 V 85.579 H 24.433 V 0 Z" style="fill:#435660;fill-opacity:1;fill-rule:nonzero;stroke:none" id="path748" inkscape:connector-curvature="0"></path></g><g id="g750" transform="translate(475.7676,108.6494)"><path d="M 0,0 -5.484,73.85 H -7.228 L -13.705,0 Z M -23.687,106.287 H 11.97 L 32.159,-71.357 H 7.474 L 2.488,-23.208 H -16.2 l -5.733,-48.149 h -21.94 z" style="fill:#425865;fill-opacity:1;fill-rule:nonzero;stroke:none" id="path752" inkscape:connector-curvature="0"></path></g><g id="g754" transform="translate(548.9385,58.4931)"><path d="M 0,0 H 5.233 C 12.707,0 16.2,2.996 16.2,13.973 v 33.688 c 0,10.977 -3.493,13.97 -10.967,13.97 H 0 Z m 0,82.837 h 5.979 c 6.728,0 9.468,2.998 9.468,13.229 v 26.945 c 0,10.231 -2.74,13.222 -9.468,13.222 H 0 Z m -24.433,73.606 h 33.41 c 21.187,0 30.908,-12.967 30.908,-31.939 V 96.315 C 39.634,80.846 30.661,76.102 15.456,72.611 v -0.5 C 32.161,68.869 40.631,64.378 40.631,44.419 V 16.224 c 0,-21.21 -9.721,-37.427 -31.9,-37.427 h -33.164 z" style="fill:#425865;fill-opacity:1;fill-rule:nonzero;stroke:none" id="path756" inkscape:connector-curvature="0"></path></g></g></g></g></svg> 