<svg width="180" height="229" viewBox="0 0 180 229" fill="none" xmlns="http://www.w3.org/2000/svg">
<path d="M162.227 102.652C151.694 94.8078 138.775 89.8726 123.748 87.9467C137.912 86.1612 149.327 81.4668 157.713 73.9437C167.122 65.4978 171.896 54.6444 171.896 41.6846C171.896 29.5473 166.7 19.6168 156.449 12.1138C146.298 4.69098 129.747 0.939453 107.298 0.939453C102.583 0.939453 95.0403 1.16013 84.207 1.60149C73.6546 2.04284 65.8305 2.26352 60.9154 2.26352L43.502 2.54438V155.173L65.7704 177.442V89.7723H97.0865C106.897 89.7723 115.623 90.9559 123.006 93.263C130.369 95.5701 136.126 98.4189 140.119 101.749C144.111 105.059 147.381 109.031 149.849 113.545C152.316 118.079 153.921 122.172 154.603 125.723C155.285 129.334 155.626 133.065 155.626 136.817C155.626 147.108 153.841 156.156 150.35 163.679C146.859 171.182 142.245 176.88 136.648 180.591C130.991 184.363 125.293 187.151 119.716 188.857C114.159 190.562 108.562 191.445 103.085 191.445C93.656 191.445 85.6113 191.144 78.8706 190.562L82.4817 194.173C82.6622 194.173 82.8227 194.173 83.0033 194.173C95.0001 194.614 104.83 194.835 112.253 194.835C132.636 194.835 149.187 189.779 161.444 179.829C173.742 169.818 180.001 155.695 180.001 137.86C180.001 123.295 174.023 111.459 162.207 102.672L162.227 102.652ZM122.224 83.2523C117.228 84.797 113.377 85.7199 110.749 85.9606C108.08 86.2214 105.512 86.3418 103.105 86.3418H65.7704V7.55979C75.6407 5.4132 87.0557 4.32987 99.6946 4.32987C102.945 4.32987 106.435 4.59067 110.046 5.11227C113.617 5.63387 117.931 6.75732 122.846 8.48262C127.701 10.1879 132.034 12.4749 135.685 15.2835C139.316 18.0721 142.486 22.1847 145.114 27.5412C147.742 32.8976 149.086 39.1568 149.086 46.1383C149.086 53.4608 147.662 59.8805 144.873 65.2369C142.085 70.5733 138.815 74.5656 135.204 77.0934C131.532 79.6412 127.179 81.7276 122.224 83.2523Z" fill="#030F2B"/>
<path d="M118.975 228.037L9.79921 118.842H0.771484L114.481 228.037H118.975Z" fill="#030F2B"/>
</svg>
