<svg height="115" viewBox="0 0 189 115" width="189" xmlns="http://www.w3.org/2000/svg" xmlns:xlink="http://www.w3.org/1999/xlink"><mask id="a" fill="#fff"><path d="m.0385.753h53.57925v47.5327h-53.57925z" fill="#fff" fill-rule="evenodd"/></mask><g fill="none" fill-rule="evenodd" transform="translate(0 -1)"><g transform="translate(.000275 .247)"><path d="m52.9971251 29.1934c-.776-1.345-2.167-2.148-3.718-2.148h-12.704v3.844h12.704c.213 0 .329.123.388.224.059.103.108.265 0 .452l-22.501 38.945c-.106.186-.27.225-.388.225s-.282-.039-.39-.225l-22.47600004-38.945c-.108-.186-.061-.348 0-.452.059-.102.173-.224.388-.224h25.26100004l2.197-3.844h-27.45800004c-1.551 0-2.941.803-3.719 2.147-.775 1.344-.775 2.95.001 4.294l22.47700004 38.946c.775 1.344 2.165 2.146 3.719 2.147 1.551 0 2.941-.802 3.718-2.146l22.5-38.946c.777-1.344.777-2.949.001-4.294" fill="#49467a"/><path d="m53.035 41.8447-22.502-38.945c-.775-1.344-2.165-2.147-3.717-2.147s-2.942.803-3.718 2.148l-22.479 38.946c-.774 1.344-.774 2.949 0 4.293.777 1.344 2.166 2.146 3.719 2.146h8.669l2.211-3.81-10.88-.034c-.215 0-.33-.122-.39-.224-.059-.102-.106-.264 0-.449l22.479-38.946c.106-.186.27-.226.389-.226.118 0 .282.04.389.225l22.501 38.945c.107.187.06.347-.002.452-.047.084-.161.223-.388.223h-25.226l-2.197 3.844h27.423c1.553 0 2.944-.802 3.719-2.147.777-1.344.777-2.949 0-4.294" fill="#e84e1b" mask="url(#a)" transform="translate(26.999725)"/></g><g fill="#e84e1b"><path d="m10.327 114.0419c-.803.848-1.8 1.205-2.916 1.205-1.101 0-2.053-.402-2.782-1.131-1.041-1.041-1.0270096-2.217-1.0270096-4.255s-.0139904-3.213 1.0270096-4.255c.729-.729 1.652-1.13 2.782-1.13 2.247 0 3.556 1.473 3.853 3.288h-1.621c-.268-1.161-1.042-1.845-2.232-1.845-.625 0-1.19.253-1.562.655-.521.565-.64 1.16-.64 3.287 0 2.128.119 2.738.64 3.303.372.402.937.64 1.562.64.699 0 1.31-.268 1.726-.744.387-.446.536-.982.536-1.666v-.595h-2.262v-1.369h3.868v1.622c0 1.368-.253 2.246-.952 2.99"/><path d="m17.3651 103.5385h-1.146l1.117-2.41h1.681zm-3.615 11.619v-10.593h6.769v1.444h-5.162v3.094h4.404v1.428h-4.404v3.184h5.162v1.443z"/><path d="m29.2503 115.1576-4.895-7.454v7.454h-1.606v-10.593h1.473l4.894 7.439v-7.439h1.607v10.593z"/><path d="m37.1561 103.5385h-1.146l1.116-2.41h1.681zm-3.615 11.619v-10.593h6.769v1.444h-5.163v3.094h4.404v1.428h-4.404v3.184h5.163v1.443z"/><path d="m46.5267 106.0082h-2.38v3.317h2.38c1.071 0 1.8-.609 1.8-1.651 0-1.041-.729-1.666-1.8-1.666zm1.86 9.149-2.232-4.463h-2.008v4.463h-1.607v-10.592h4.106c2.008 0 3.288 1.294 3.288 3.094 0 1.518-.922 2.485-2.113 2.812l2.44 4.686z"/><path d="m56.3475 106.9604-1.651 4.701h3.257zm2.782 8.197-.729-2.127h-4.18l-.729 2.127h-1.711l3.882-10.593h1.295l3.883 10.593z"/><path d="m65.3123 106.0082v9.149h-1.607v-9.149h-2.916v-1.443h7.439v1.443z"/><path d="m70.2733 115.1576v-10.593h6.769v1.444h-5.163v3.094h4.404v1.428h-4.404v3.184h5.163v1.443z"/><path d="m82.9842 115.247c-2.157 0-3.794-1.473-3.794-3.66v-7.022h1.607v6.948c0 1.413.863 2.291 2.187 2.291s2.202-.878 2.202-2.291v-6.948h1.607v7.022c0 2.187-1.652 3.66-3.809 3.66"/><path d="m93.493 106.0082h-2.38v3.317h2.38c1.071 0 1.8-.609 1.8-1.651 0-1.041-.729-1.666-1.8-1.666zm1.86 9.149-2.232-4.463h-2.008v4.463h-1.607v-10.592h4.106c2.008 0 3.288 1.294 3.288 3.094 0 1.518-.923 2.485-2.113 2.812l2.44 4.686z"/><path d="m108.5355 106.7221c-.446-.491-1.041-.714-1.8-.714h-1.949v7.707h1.949c.759 0 1.354-.223 1.8-.715.551-.61.565-1.755.565-3.213s-.014-2.455-.565-3.065m1.101 7.439c-.669.669-1.637.997-2.737.997h-3.719v-10.593h3.719c1.1 0 2.068.327 2.737.997 1.146 1.145 1.071 2.692 1.071 4.225 0 1.532.075 3.228-1.071 4.374"/><path d="m113.1785 115.1576v-10.593h6.769v1.444h-5.163v3.094h4.404v1.428h-4.404v3.184h5.163v1.443z"/><path d="m129.5003 115.1576h-1.25l-3.481-10.593h1.667l2.439 7.707 2.44-7.707h1.696z"/><path d="m137.3123 106.9604-1.651 4.701h3.257zm2.782 8.197-.729-2.127h-4.18l-.729 2.127h-1.711l3.882-10.593h1.295l3.883 10.593z"/><path d="m143.6942 115.1576v-10.593h1.606v9.15h5.103v1.443z"/><path d="m152.449 115.1576v-10.593h6.769v1.444h-5.163v3.094h4.404v1.428h-4.404v3.184h5.163v1.443z"/><path d="m165.16 115.247c-2.157 0-3.794-1.473-3.794-3.66v-7.022h1.607v6.948c0 1.413.863 2.291 2.187 2.291s2.202-.878 2.202-2.291v-6.948h1.607v7.022c0 2.187-1.652 3.66-3.809 3.66"/><path d="m175.6688 106.0082h-2.38v3.317h2.38c1.071 0 1.8-.609 1.8-1.651 0-1.041-.729-1.666-1.8-1.666zm1.86 9.149-2.232-4.463h-2.008v4.463h-1.607v-10.592h4.106c2.008 0 3.288 1.294 3.288 3.094 0 1.518-.923 2.485-2.113 2.812l2.44 4.686z"/><path d="m184.5579 115.247c-1.592 0-2.737-.372-3.749-1.398l1.071-1.057c.774.774 1.622 1.012 2.708 1.012 1.384 0 2.187-.595 2.187-1.622 0-.461-.134-.848-.417-1.101-.268-.252-.535-.357-1.16-.446l-1.25-.179c-.863-.119-1.547-.416-2.008-.848-.521-.49-.774-1.16-.774-2.023 0-1.845 1.339-3.109 3.541-3.109 1.398 0 2.38.357 3.288 1.205l-1.027 1.011c-.655-.624-1.413-.818-2.306-.818-1.25 0-1.934.714-1.934 1.652 0 .387.119.728.402.981.268.239.699.417 1.19.491l1.205.179c.982.149 1.533.387 1.979.788.58.506.863 1.265.863 2.173 0 1.948-1.592 3.109-3.809 3.109"/></g><g fill="#49467a"><path d="m71.9022 58.519-6.929 22.484-6.929-22.484h-6.978l10.709 32.563c.581 1.486 1.647 2.229 3.198 2.229 1.485 0 2.519-.743 3.1-2.229l10.855-32.563z"/><path d="m87.5052 81.391 4.264-13.665 4.07 13.665zm6.372-22.29c-.533-.388-1.236-.582-2.108-.582s-1.608.211-2.205.63c-.598.421-1.138 1.18-1.623 2.278l-11.048 31.593h7.026l1.89-5.96h11.581l1.938 5.96h7.026l-11.047-31.593c-.421-1.163-.897-1.939-1.43-2.326z"/><path d="m115.8514 86.2367c-.613-.517-.92-1.454-.92-2.811v-24.907h-6.736v24.907c0 3.392.864 5.839 2.593 7.341 1.727 1.503 4.53 2.254 8.407 2.254h10.272v-6.009h-10.272c-1.616 0-2.731-.258-3.344-.775"/><path d="m142.1629 81.391 4.264-13.665 4.07 13.665zm6.372-22.29c-.533-.388-1.236-.582-2.108-.582s-1.608.211-2.205.63c-.598.421-1.138 1.18-1.623 2.278l-11.048 31.593h7.026l1.89-5.96h11.581l1.938 5.96h7.026l-11.047-31.593c-.421-1.163-.897-1.939-1.43-2.326z"/><path d="m188.4857 64.5282v-6.009h-22.726v24.906c0 3.393.865 5.84 2.593 7.342 1.727 1.502 4.53 2.253 8.407 2.253h11.726v-6.008h-11.726c-1.616 0-2.731-.258-3.344-.776-.613-.516-.92-1.453-.92-2.811v-4.796h10.224l.969-6.01h-11.193v-8.091z"/><path d="m173.6497 54.0405 5.982.019 4.106-7.106c.059-.103.032-.192 0-.248-.033-.056-.097-.123-.214-.123h-5.998l-4.091 7.087c-.058.102-.032.191 0 .247.033.057.097.124.215.124"/></g></g></svg>