<?xml version="1.0" standalone="no"?>
<!DOCTYPE svg PUBLIC "-//W3C//DTD SVG 20010904//EN"
 "http://www.w3.org/TR/2001/REC-SVG-20010904/DTD/svg10.dtd">
<svg version="1.0" xmlns="http://www.w3.org/2000/svg"
 width="1860.000000pt" height="1582.000000pt" viewBox="0 0 1860.000000 1582.000000"
 preserveAspectRatio="xMidYMid meet">
<metadata>
Created by potrace 1.16, written by Peter Selinger 2001-2019
</metadata>
<g transform="translate(0.000000,1582.000000) scale(0.100000,-0.100000)"
fill="#DCCDBF" stroke="none">
<path d="M9038 15315 c-3 -4 -64 -11 -135 -15 -70 -5 -148 -14 -173 -20 -25
-7 -81 -15 -125 -19 -44 -3 -95 -14 -114 -24 -19 -9 -54 -17 -78 -17 -24 0
-63 -9 -85 -20 -23 -11 -53 -20 -67 -20 -27 0 -96 -21 -107 -33 -4 -4 -18 -7
-30 -7 -13 0 -36 -5 -51 -11 -53 -22 -68 -27 -113 -39 -25 -7 -62 -21 -83 -31
-22 -10 -49 -19 -60 -19 -12 0 -33 -9 -47 -20 -14 -11 -33 -20 -42 -20 -10 0
-33 -9 -53 -20 -20 -11 -44 -20 -54 -20 -10 0 -26 -9 -36 -20 -10 -11 -28 -20
-40 -20 -12 0 -30 -9 -40 -20 -10 -11 -26 -20 -35 -20 -10 0 -28 -8 -41 -18
-13 -10 -40 -26 -60 -35 -20 -9 -42 -23 -49 -32 -7 -8 -18 -15 -25 -15 -6 0
-20 -9 -30 -20 -10 -11 -28 -20 -40 -20 -14 0 -25 -8 -28 -20 -3 -12 -14 -20
-26 -20 -18 0 -48 -19 -167 -107 -24 -18 -48 -33 -53 -33 -5 0 -13 -9 -16 -20
-3 -11 -12 -20 -19 -20 -7 0 -21 -9 -31 -20 -10 -11 -22 -20 -27 -20 -17 0
-155 -117 -234 -197 -11 -13 -24 -23 -27 -23 -10 0 -54 -47 -60 -64 -4 -9 -13
-16 -20 -16 -13 0 -197 -183 -197 -195 0 -3 -24 -31 -54 -63 -75 -80 -166
-190 -166 -200 0 -5 -9 -17 -20 -27 -11 -10 -20 -23 -20 -30 0 -7 -9 -20 -20
-30 -11 -10 -20 -23 -20 -30 0 -7 -9 -20 -20 -30 -11 -10 -20 -24 -20 -30 0
-7 -7 -18 -15 -25 -9 -7 -23 -28 -31 -46 -9 -19 -20 -34 -25 -34 -5 0 -9 -9
-9 -20 0 -11 -4 -20 -10 -20 -5 0 -10 -5 -10 -10 0 -6 -18 -40 -40 -76 -22
-36 -40 -69 -40 -73 0 -5 -9 -16 -20 -26 -11 -10 -20 -28 -20 -40 0 -12 -9
-30 -20 -40 -11 -10 -20 -28 -20 -40 0 -12 -9 -30 -20 -40 -11 -10 -20 -29
-20 -42 0 -14 -9 -36 -20 -50 -11 -14 -20 -32 -20 -39 0 -8 -4 -22 -9 -32 -36
-72 -51 -106 -51 -116 0 -7 -9 -31 -20 -54 -11 -22 -20 -56 -20 -74 0 -18 -9
-44 -20 -58 -11 -14 -20 -39 -20 -57 0 -18 -9 -48 -20 -68 -11 -20 -20 -51
-20 -70 0 -19 -9 -50 -19 -68 -10 -19 -21 -56 -24 -83 -2 -27 -10 -67 -17 -89
-6 -22 -16 -65 -20 -95 -8 -55 -23 -144 -41 -250 -35 -206 -45 -828 -43 -2883
1 -1061 5 -1432 13 -1440 7 -7 56 -13 119 -15 153 -4 598 15 657 28 28 6 79
15 115 19 36 4 82 15 104 24 21 9 54 17 72 17 18 0 49 9 69 20 20 11 48 20 63
20 15 0 38 9 52 20 14 11 36 20 50 20 14 0 36 9 50 20 14 11 30 20 37 20 12 0
30 9 121 62 20 12 49 27 63 35 15 7 32 20 39 28 7 8 18 15 24 16 6 0 30 15 53
32 22 18 65 50 95 73 29 23 59 48 67 57 7 10 19 17 25 17 28 0 279 272 299
323 3 9 13 17 22 17 8 0 15 8 15 18 0 9 9 23 20 30 11 7 20 18 20 26 0 7 9 21
20 31 11 10 20 23 20 30 0 6 8 20 18 31 9 10 24 33 32 49 8 17 22 42 32 57 10
14 18 32 18 40 0 7 9 24 20 38 11 14 20 33 20 43 0 10 9 27 20 39 11 12 20 33
20 47 0 14 9 37 20 51 11 14 20 35 20 47 0 12 9 38 20 58 11 20 20 45 20 57 0
20 12 64 30 113 9 22 27 111 34 165 3 19 10 58 17 85 9 36 14 305 19 970 5
612 11 942 19 985 6 36 15 103 19 150 5 47 16 105 25 130 9 25 17 62 17 82 0
20 9 57 20 83 11 26 20 60 20 76 0 16 4 37 10 47 5 9 19 46 30 82 21 66 35
100 51 132 5 10 9 26 9 36 0 11 9 27 20 37 11 10 20 30 20 45 0 15 9 35 20 45
11 10 20 28 20 40 0 12 9 30 20 40 11 10 20 26 20 35 0 9 9 25 20 35 11 10 20
26 20 37 0 10 5 18 10 18 6 0 10 5 10 10 0 13 95 156 110 165 5 3 10 14 10 23
0 10 9 23 20 30 11 7 20 17 20 23 0 5 16 27 36 47 20 20 50 55 68 76 55 70
322 326 339 326 2 0 24 18 48 40 24 22 47 40 51 40 4 0 30 17 58 38 47 35 85
59 161 99 15 7 32 20 39 28 7 8 22 15 35 15 12 0 30 9 40 20 10 11 28 20 40
20 12 0 30 9 40 20 10 11 26 20 36 20 9 0 43 14 74 30 31 17 63 30 71 30 7 0
29 9 49 20 20 11 47 20 60 20 14 0 35 5 48 12 50 25 58 28 94 28 21 0 58 8 83
17 25 9 83 20 130 24 47 4 119 13 160 21 93 16 216 16 340 -1 52 -7 129 -15
170 -18 41 -2 79 -9 84 -14 6 -5 20 -9 32 -9 13 0 26 -4 29 -10 3 -5 27 -10
53 -10 31 0 55 -7 72 -20 14 -11 37 -20 51 -20 36 0 288 -128 320 -162 9 -10
24 -18 33 -18 9 0 21 -9 28 -20 7 -11 16 -20 20 -20 29 0 328 -280 328 -307 0
-7 9 -18 20 -25 11 -7 20 -18 20 -24 0 -6 9 -19 20 -29 11 -10 20 -22 20 -27
0 -6 9 -22 21 -36 40 -53 79 -117 79 -133 0 -9 9 -24 20 -34 11 -10 20 -26 20
-35 0 -9 9 -26 20 -38 11 -12 20 -32 20 -45 0 -13 9 -32 20 -42 11 -10 20 -31
20 -47 0 -17 9 -41 20 -55 11 -14 20 -36 20 -49 0 -13 9 -39 20 -59 11 -20 20
-43 20 -52 0 -15 12 -58 30 -108 21 -58 30 -94 30 -121 0 -16 9 -56 20 -88 11
-33 20 -77 20 -99 0 -23 9 -66 19 -96 11 -32 22 -97 25 -151 3 -52 11 -120 17
-150 15 -68 25 -3128 10 -3143 -8 -8 -14 -6 -68 21 -13 7 -28 12 -35 12 -7 0
-24 9 -38 20 -14 11 -32 20 -41 20 -9 0 -24 9 -34 20 -10 11 -23 20 -30 20 -7
0 -20 9 -30 20 -10 11 -26 20 -36 20 -11 0 -24 9 -31 20 -7 11 -17 20 -23 20
-21 0 -245 232 -245 254 0 6 -14 27 -30 46 -16 19 -30 38 -30 42 0 4 -18 36
-40 70 -22 35 -40 70 -40 78 0 9 -9 23 -20 33 -13 11 -20 29 -20 51 0 18 -9
45 -20 59 -11 14 -20 40 -20 61 0 32 -5 49 -31 111 -15 36 -20 192 -29 1025
-9 847 -19 1073 -50 1145 -9 22 -18 58 -29 125 -4 25 -15 60 -24 79 -9 19 -17
47 -17 63 0 17 -9 41 -20 55 -11 14 -20 40 -20 57 0 17 -9 42 -20 56 -11 14
-20 36 -20 50 0 14 -9 36 -20 50 -11 14 -20 34 -20 46 0 11 -9 29 -20 39 -11
10 -20 24 -20 31 0 7 -10 30 -22 51 -12 21 -27 50 -35 64 -7 15 -20 32 -28 39
-8 7 -15 20 -15 29 0 10 -9 27 -20 39 -11 12 -20 24 -20 28 0 3 -18 28 -40 54
-22 26 -40 52 -40 56 0 5 -20 30 -44 56 -25 26 -48 54 -53 62 -17 31 -177 188
-200 197 -13 5 -23 15 -23 24 0 8 -6 15 -13 15 -8 0 -22 9 -32 20 -10 11 -22
20 -26 20 -8 0 -73 46 -122 86 -9 8 -21 14 -25 14 -4 0 -18 9 -32 20 -14 11
-32 20 -41 20 -9 0 -24 9 -34 20 -10 11 -28 20 -40 20 -12 0 -30 9 -40 20 -10
11 -28 20 -40 20 -12 0 -30 9 -40 20 -10 11 -29 20 -43 20 -13 0 -36 8 -50 19
-15 10 -40 21 -57 25 -16 4 -45 15 -63 23 -25 12 -39 13 -55 6 -12 -6 -42 -16
-67 -23 -25 -7 -62 -21 -83 -31 -22 -10 -49 -19 -61 -19 -13 0 -31 -9 -41 -20
-10 -11 -30 -20 -45 -20 -15 0 -35 -9 -45 -20 -10 -11 -28 -20 -40 -20 -12 0
-30 -9 -40 -20 -10 -11 -26 -20 -35 -20 -9 0 -25 -9 -35 -20 -10 -11 -22 -20
-27 -20 -4 0 -36 -19 -69 -42 -33 -24 -68 -47 -77 -53 -9 -5 -23 -18 -30 -27
-7 -10 -20 -18 -28 -18 -8 0 -17 -7 -21 -16 -3 -9 -14 -19 -24 -22 -29 -11
-359 -340 -359 -358 0 -3 -14 -22 -31 -44 -36 -45 -35 -72 4 -77 15 -2 27 1
27 7 0 5 12 10 28 10 15 0 38 9 52 20 14 11 36 20 49 20 14 0 50 9 80 19 135
46 457 46 592 0 30 -10 65 -19 77 -19 12 0 37 -9 57 -20 20 -11 46 -20 59 -20
12 0 31 -9 41 -20 10 -11 29 -20 42 -20 13 0 31 -9 40 -20 10 -11 25 -20 34
-20 9 0 24 -9 34 -20 10 -11 22 -20 28 -20 23 0 267 -223 267 -245 0 -6 9 -16
20 -23 11 -7 20 -18 20 -26 0 -7 9 -21 20 -31 11 -10 20 -26 20 -36 0 -11 9
-24 20 -31 11 -7 20 -18 20 -25 0 -7 14 -34 30 -60 17 -26 30 -54 30 -62 0 -9
9 -27 20 -41 11 -14 20 -36 20 -50 0 -14 9 -36 20 -50 11 -15 20 -41 20 -63 0
-20 4 -45 9 -55 24 -47 30 -73 35 -142 3 -41 10 -100 17 -130 9 -39 14 -305
19 -925 7 -832 11 -948 31 -961 5 -3 9 -34 9 -69 0 -35 5 -67 10 -70 6 -3 10
-19 10 -35 0 -16 5 -32 10 -35 6 -3 10 -19 10 -36 0 -16 4 -37 9 -47 5 -9 15
-37 22 -62 7 -25 16 -49 21 -55 4 -5 8 -22 8 -38 0 -16 9 -40 20 -54 11 -14
20 -38 20 -53 0 -15 9 -35 20 -45 11 -10 20 -30 20 -44 0 -14 9 -37 20 -51 11
-14 20 -31 20 -38 0 -8 8 -26 18 -40 11 -15 25 -42 33 -59 8 -18 17 -33 21
-33 5 0 8 -6 8 -13 0 -7 13 -28 30 -47 16 -19 29 -40 30 -46 0 -6 9 -19 20
-29 11 -10 20 -24 20 -32 0 -7 7 -13 15 -13 9 0 18 -8 22 -17 3 -10 24 -40 46
-68 48 -59 242 -255 254 -255 4 0 26 -17 48 -38 54 -50 122 -102 133 -102 5 0
17 -9 27 -20 10 -11 24 -20 30 -20 7 0 18 -7 25 -15 7 -8 24 -21 39 -28 14 -8
43 -23 64 -35 90 -53 108 -62 120 -62 7 0 23 -9 37 -20 14 -11 33 -20 42 -20
10 0 32 -9 50 -20 18 -11 45 -20 60 -20 15 0 43 -9 63 -20 20 -11 51 -20 69
-20 18 0 48 -8 67 -17 19 -10 63 -21 99 -25 36 -3 88 -12 115 -19 33 -8 172
-13 411 -16 301 -3 363 -1 373 10 15 19 8 3916 -8 4087 -12 137 -26 245 -40
320 -6 30 -13 84 -17 120 -3 36 -9 74 -13 85 -5 11 -14 33 -20 48 -6 15 -11
56 -11 90 0 46 -5 68 -20 87 -14 18 -20 41 -20 80 0 39 -6 62 -20 80 -13 16
-20 41 -20 70 0 29 -7 54 -20 70 -11 14 -20 38 -20 53 0 15 -9 47 -20 69 -11
23 -20 49 -20 57 0 9 -14 43 -30 76 -16 33 -30 67 -30 75 0 8 -9 26 -20 40
-11 14 -20 37 -20 51 0 14 -9 34 -20 44 -11 10 -20 28 -20 40 0 12 -9 30 -20
40 -11 10 -20 28 -20 40 0 12 -9 30 -20 40 -11 10 -20 22 -20 27 0 5 -13 29
-30 53 -16 24 -30 48 -30 53 0 5 -9 17 -20 27 -11 10 -20 23 -20 30 0 7 -9 20
-20 30 -11 10 -20 23 -20 30 0 7 -9 20 -20 30 -11 10 -20 24 -20 31 0 7 -4 14
-8 16 -5 2 -25 25 -45 51 -75 99 -327 367 -346 367 -3 0 -25 17 -47 38 -61 55
-122 102 -132 102 -5 0 -17 9 -27 20 -10 11 -23 20 -30 20 -7 0 -20 9 -30 20
-10 11 -26 20 -36 20 -11 0 -24 9 -31 20 -7 11 -20 20 -29 20 -9 0 -28 9 -42
20 -14 11 -31 20 -39 20 -8 0 -18 4 -24 9 -18 19 -164 91 -182 91 -10 0 -27 9
-37 20 -10 11 -31 20 -47 20 -17 0 -41 9 -55 20 -18 14 -41 20 -73 20 -34 0
-52 5 -65 20 -13 14 -31 20 -60 20 -23 0 -57 8 -76 17 -19 10 -61 21 -94 25
-33 4 -85 13 -115 18 -244 47 -689 47 -940 0 -30 -6 -82 -13 -115 -17 -32 -3
-74 -14 -92 -24 -19 -11 -53 -19 -76 -19 -26 0 -51 -8 -67 -20 -16 -13 -41
-20 -71 -20 -33 0 -51 -6 -64 -20 -12 -14 -31 -20 -59 -20 -25 0 -51 -8 -66
-20 -14 -11 -37 -20 -52 -20 -14 0 -43 -8 -65 -19 -21 -10 -67 -33 -102 -50
-35 -17 -69 -31 -76 -31 -6 0 -20 -9 -30 -20 -10 -11 -30 -20 -44 -20 -15 0
-31 -8 -39 -20 -7 -11 -23 -20 -37 -20 -14 0 -29 -8 -35 -20 -6 -11 -21 -20
-33 -20 -12 0 -28 -9 -35 -20 -7 -11 -21 -20 -31 -20 -11 0 -23 -5 -26 -10 -6
-10 -135 -102 -176 -126 -10 -6 -27 -18 -37 -27 -10 -10 -23 -17 -29 -17 -5 0
-18 -9 -28 -20 -10 -11 -24 -20 -31 -20 -7 0 -16 -9 -19 -20 -3 -11 -11 -20
-16 -20 -6 0 -31 -17 -57 -37 -71 -59 -381 -371 -442 -447 -30 -38 -73 -89
-96 -115 -22 -25 -55 -67 -73 -93 -17 -27 -36 -48 -41 -48 -6 0 -10 -8 -10
-18 0 -10 -9 -24 -20 -32 -11 -8 -20 -18 -20 -22 0 -5 -22 -42 -50 -84 -27
-41 -50 -81 -50 -87 0 -7 -9 -18 -20 -25 -11 -7 -20 -19 -20 -28 0 -9 -9 -27
-20 -41 -11 -14 -20 -33 -20 -42 0 -9 -9 -27 -20 -41 -11 -14 -20 -31 -20 -38
0 -8 -8 -26 -18 -40 -10 -15 -25 -43 -32 -62 -8 -19 -22 -50 -32 -68 -10 -18
-18 -39 -18 -47 0 -8 -9 -29 -20 -47 -11 -18 -20 -43 -20 -55 0 -13 -9 -37
-20 -55 -11 -19 -20 -51 -20 -74 0 -28 -6 -47 -20 -59 -15 -13 -20 -31 -20
-66 0 -31 -7 -60 -20 -81 -12 -19 -20 -51 -20 -75 0 -23 -5 -55 -11 -70 -6
-15 -15 -37 -20 -48 -4 -11 -10 -42 -13 -70 -3 -27 -10 -75 -16 -105 -27 -139
-31 -176 -39 -346 -5 -100 -11 -186 -14 -191 -4 -6 -7 -259 -7 -564 0 -305 -5
-687 -11 -849 -9 -257 -13 -300 -30 -337 -10 -24 -19 -62 -19 -85 0 -27 -8
-52 -20 -68 -11 -14 -20 -37 -20 -51 0 -14 -9 -34 -20 -44 -11 -10 -20 -24
-20 -31 0 -15 -42 -88 -91 -157 -19 -27 -38 -56 -44 -65 -29 -48 -272 -292
-291 -292 -6 0 -19 -9 -29 -20 -10 -11 -28 -20 -40 -20 -12 0 -30 -9 -40 -20
-10 -11 -25 -20 -34 -20 -9 0 -27 -9 -41 -20 -14 -11 -33 -20 -42 -20 -10 0
-33 -9 -53 -20 -20 -11 -40 -20 -45 -20 -7 0 -10 546 -10 1523 0 1353 2 1532
16 1612 9 50 20 137 23 195 4 58 15 125 24 150 9 25 17 65 17 90 0 43 18 112
33 126 4 4 7 24 7 45 0 21 9 54 20 74 11 20 20 49 20 65 0 16 5 32 10 35 6 3
10 15 10 26 0 10 3 19 8 19 7 0 32 69 32 92 0 7 9 24 20 38 11 14 20 36 20 50
0 14 9 36 20 50 11 14 20 33 20 43 0 10 9 27 20 39 11 12 20 29 20 38 0 9 9
25 20 35 11 10 20 25 20 33 0 7 8 26 18 40 10 15 26 43 36 62 9 19 32 55 51
80 18 25 34 49 34 53 1 4 21 33 46 65 74 95 115 152 115 160 0 4 23 30 50 57
28 27 50 54 50 60 1 18 425 425 444 425 3 0 14 6 23 14 49 40 114 86 122 86 4
0 16 9 26 20 10 11 23 20 30 20 7 0 20 9 30 20 10 11 23 20 30 20 7 0 20 9 30
20 10 11 26 20 35 20 9 0 20 4 26 10 17 17 247 130 264 130 9 0 25 9 35 20 10
11 30 20 45 20 15 0 35 9 45 20 10 11 30 20 44 20 14 0 37 9 51 20 14 11 37
20 52 20 15 0 43 9 63 20 20 11 46 20 58 20 13 0 44 14 70 30 26 17 51 30 56
30 4 0 16 9 26 20 10 11 26 20 35 20 9 0 25 9 35 20 10 11 28 20 39 20 12 0
27 9 34 20 7 11 20 20 31 20 10 0 26 9 36 20 10 11 26 20 35 20 9 0 20 4 26 9
15 15 166 91 181 91 8 0 23 9 35 20 12 11 33 20 47 20 14 0 37 9 51 20 14 11
39 20 55 20 17 0 41 9 55 20 14 11 41 20 62 20 21 0 53 9 73 20 20 11 49 20
65 20 17 0 39 5 50 10 11 6 29 15 40 20 11 6 30 10 42 10 13 0 46 7 73 16 103
32 157 44 201 44 24 0 52 4 62 9 46 24 157 31 488 31 278 0 362 -3 414 -16 69
-16 110 -12 110 10 0 24 -41 66 -64 66 -13 0 -31 9 -41 20 -10 11 -29 20 -42
20 -13 0 -43 9 -65 20 -23 11 -49 20 -57 20 -16 0 -78 20 -96 31 -5 4 -35 12
-65 19 -54 12 -68 17 -123 39 -15 6 -40 11 -56 11 -15 0 -46 9 -69 20 -22 11
-61 20 -86 20 -25 0 -47 4 -50 9 -8 12 -47 21 -131 31 -38 5 -92 14 -120 20
-27 7 -106 16 -175 21 -173 12 -654 22 -662 14z M1313 6306 c-18 -6 -35 -15
-39 -19 -4 -4 -26 -7 -49 -7 -29 0 -47 -6 -60 -20 -10 -11 -30 -20 -44 -20
-14 0 -37 -9 -51 -20 -14 -11 -31 -20 -38 -20 -7 0 -40 -19 -74 -42 -33 -24
-67 -47 -75 -53 -21 -14 -103 -95 -103 -102 0 -3 -14 -21 -30 -40 -17 -18 -30
-38 -30 -44 0 -5 -9 -19 -20 -31 -11 -12 -20 -30 -20 -40 0 -9 -9 -32 -20 -50
-12 -19 -20 -51 -20 -76 0 -23 -4 -50 -9 -60 -33 -65 -40 -217 -15 -309 9 -32
20 -76 24 -98 9 -50 20 -75 31 -75 5 0 9 -7 9 -14 0 -34 148 -206 177 -206 6
0 18 -9 28 -20 10 -11 24 -20 32 -20 12 0 52 -19 63 -30 11 -11 50 -30 62 -30
7 0 24 -9 38 -20 14 -11 36 -20 50 -20 14 0 36 -9 50 -20 14 -11 37 -20 52
-20 15 0 43 -9 63 -20 20 -11 50 -20 68 -20 18 0 52 -9 75 -20 22 -11 57 -20
77 -20 19 0 43 -4 53 -9 34 -17 68 -29 122 -41 30 -7 63 -17 73 -22 9 -4 26
-12 37 -18 11 -6 26 -10 33 -10 8 0 22 -9 32 -20 10 -11 22 -20 27 -20 14 0
88 -62 88 -74 0 -6 9 -22 20 -36 15 -20 20 -41 20 -98 0 -40 -6 -82 -12 -95
-23 -40 -82 -97 -100 -97 -17 0 -25 -3 -80 -31 -14 -8 -87 -11 -204 -11 -155
1 -190 4 -244 21 -35 12 -77 21 -94 21 -17 0 -42 9 -56 20 -14 11 -36 20 -50
20 -14 0 -36 9 -50 20 -14 11 -34 20 -45 20 -11 0 -31 9 -45 20 -14 11 -30 20
-36 20 -6 0 -19 9 -29 20 -10 11 -23 20 -29 20 -6 0 -39 23 -74 51 -57 46 -66
50 -109 47 -40 -3 -49 -7 -64 -33 -10 -16 -18 -39 -18 -51 -1 -11 -10 -29 -21
-39 -11 -10 -20 -28 -20 -40 0 -12 -9 -30 -20 -40 -11 -10 -20 -28 -20 -40 0
-12 -9 -30 -20 -40 -11 -10 -20 -26 -20 -37 0 -10 -12 -36 -26 -58 -23 -34
-25 -45 -18 -72 6 -18 20 -38 32 -44 12 -6 30 -18 40 -27 10 -10 23 -17 29
-17 6 0 16 -7 23 -15 7 -9 29 -23 49 -32 20 -9 48 -25 63 -35 14 -10 34 -18
45 -18 10 0 29 -9 43 -20 14 -11 39 -20 56 -20 18 0 38 -8 49 -20 12 -13 31
-20 54 -20 20 0 47 -9 61 -20 14 -11 38 -20 54 -20 28 0 74 -12 121 -31 26
-10 78 -16 255 -28 204 -14 459 6 544 42 21 9 48 17 61 17 12 0 30 9 40 20 11
12 31 20 51 20 23 0 38 6 46 20 7 11 22 20 33 20 11 0 28 9 38 20 9 11 23 20
32 20 8 0 19 9 25 20 6 11 17 20 25 20 34 0 195 239 195 290 0 8 9 40 20 70
17 47 20 79 20 225 0 158 -9 228 -33 251 -4 4 -7 15 -7 25 0 10 -10 35 -22 56
-12 21 -28 51 -36 66 -20 41 -162 177 -184 177 -10 0 -18 4 -18 9 0 5 -20 18
-44 30 -25 11 -47 25 -51 31 -3 5 -16 10 -28 10 -12 0 -33 9 -47 20 -14 11
-33 20 -43 20 -9 0 -25 4 -35 9 -81 41 -108 51 -133 51 -15 0 -44 9 -64 20
-20 11 -52 20 -73 20 -20 0 -50 9 -67 20 -18 12 -47 20 -73 20 -29 0 -53 7
-69 20 -18 14 -41 20 -73 20 -34 0 -52 5 -65 20 -11 12 -31 20 -49 20 -17 0
-42 9 -56 20 -14 11 -32 20 -40 20 -17 0 -90 69 -90 85 0 6 -9 21 -20 35 -29
37 -27 123 4 184 24 48 86 116 106 116 7 0 24 8 38 19 63 43 412 43 490 -1 18
-10 45 -18 61 -18 15 0 36 -9 46 -20 10 -11 30 -20 44 -20 14 0 37 -9 51 -20
14 -11 29 -20 33 -20 5 0 28 -13 52 -30 24 -16 48 -30 53 -30 5 0 15 -7 22
-15 14 -17 67 -45 85 -45 21 0 75 75 75 103 0 8 9 22 20 32 11 10 20 27 20 37
0 11 9 31 20 45 11 14 20 33 20 42 0 9 9 23 20 31 11 8 20 24 20 35 0 11 9 31
20 45 11 14 20 36 19 50 0 37 -12 49 -94 94 -11 6 -22 13 -25 16 -11 12 -176
90 -190 90 -8 0 -26 9 -40 20 -14 11 -41 20 -60 20 -19 0 -46 9 -60 20 -15 12
-41 20 -65 20 -22 0 -65 9 -95 20 -50 18 -78 20 -300 19 -159 -1 -256 -5 -277
-13z M12355 6295 l-30 -21 -3 -1309 c-2 -1207 -1 -1310 15 -1327 15 -17 37
-18 278 -18 261 0 262 0 273 23 9 16 13 144 15 447 l2 425 395 5 c350 4 399 7
429 23 19 9 44 17 56 17 20 0 142 56 155 71 3 3 27 20 54 39 61 41 206 185
206 204 0 7 7 19 15 26 17 14 45 67 45 87 0 7 4 13 8 13 9 0 32 58 32 81 0 9
9 34 20 57 18 37 20 61 20 254 0 201 -8 269 -33 294 -4 4 -7 19 -7 33 0 29
-63 163 -85 181 -8 7 -15 17 -15 22 0 25 -137 173 -188 203 -17 11 -32 23 -32
27 0 4 -6 8 -13 8 -8 0 -22 9 -32 20 -10 11 -26 20 -37 20 -10 0 -18 3 -18 8
0 9 -49 32 -70 32 -8 0 -27 8 -40 17 -14 10 -50 21 -80 24 -30 4 -84 13 -120
20 -47 9 -220 12 -625 13 -547 1 -560 1 -590 -19z m1185 -495 c14 -11 34 -20
45 -20 26 0 155 -135 155 -162 0 -14 19 -77 31 -100 12 -24 11 -215 -1 -223
-5 -3 -10 -17 -10 -30 0 -55 -82 -172 -157 -224 -31 -21 -39 -22 -355 -22
-178 0 -329 1 -335 1 -10 0 -13 85 -13 393 0 217 3 397 7 400 3 4 142 7 307 7
283 0 302 -2 326 -20z M3698 5655 c-4 -5 -38 -12 -75 -16 -100 -12 -134 -20
-171 -40 -18 -11 -44 -19 -58 -19 -14 0 -34 -9 -46 -20 -12 -11 -29 -20 -38
-20 -9 0 -26 -9 -38 -20 -12 -11 -27 -20 -35 -20 -8 0 -22 -9 -32 -20 -10 -11
-23 -20 -30 -20 -11 0 -156 -140 -207 -200 -16 -18 -28 -41 -28 -51 0 -10 -9
-23 -20 -29 -11 -6 -20 -20 -20 -31 0 -11 -9 -29 -20 -41 -11 -12 -20 -32 -20
-45 0 -12 -8 -37 -19 -55 -10 -19 -21 -47 -24 -63 -3 -17 -11 -50 -17 -75 -35
-136 -35 -310 0 -465 6 -27 14 -65 17 -84 3 -19 14 -49 24 -65 11 -17 19 -40
19 -51 0 -11 9 -31 20 -45 11 -14 20 -32 20 -41 0 -9 9 -24 20 -34 11 -10 20
-26 20 -37 0 -10 18 -37 40 -60 22 -24 40 -46 40 -50 0 -15 160 -158 177 -158
5 0 18 -9 28 -20 10 -11 23 -20 30 -20 7 0 20 -9 30 -20 10 -11 28 -20 40 -20
12 0 30 -9 40 -20 10 -11 29 -20 41 -20 13 0 38 -8 56 -18 82 -45 349 -73 497
-53 164 23 205 32 263 62 10 5 28 9 41 9 13 0 32 9 42 20 10 11 28 20 41 20
13 0 28 9 34 20 6 12 21 20 35 20 14 0 25 4 25 8 0 4 15 16 33 27 57 33 227
215 227 243 0 5 9 17 20 27 23 20 28 83 8 103 -7 7 -27 12 -45 12 -18 0 -48 9
-68 20 -20 11 -51 20 -70 20 -19 0 -49 9 -67 20 -18 11 -47 20 -64 20 -17 0
-45 7 -63 16 -30 15 -34 15 -50 0 -10 -9 -22 -16 -27 -16 -5 -1 -25 -23 -44
-51 -36 -52 -126 -129 -151 -129 -8 0 -25 -9 -39 -20 -22 -18 -41 -20 -185
-20 -144 0 -163 2 -185 20 -14 11 -31 20 -38 20 -23 0 -97 57 -153 117 -64 70
-119 174 -119 226 l0 37 732 2 733 3 15 30 c29 60 0 388 -43 474 -9 19 -17 48
-17 65 0 17 -9 42 -20 56 -11 14 -20 34 -20 46 0 11 -9 29 -20 39 -11 10 -20
26 -20 35 0 9 -9 25 -20 35 -11 10 -20 24 -20 31 0 7 -9 18 -20 24 -11 6 -20
16 -20 23 0 13 -100 117 -113 117 -4 0 -27 18 -49 40 -23 22 -49 40 -58 40
-10 0 -25 9 -35 20 -10 11 -28 20 -39 20 -12 0 -32 9 -46 20 -14 11 -32 20
-41 20 -9 0 -31 8 -50 17 -56 28 -192 50 -369 59 -63 3 -118 3 -122 -1z m211
-418 c19 -9 49 -17 66 -17 18 0 38 -7 45 -15 7 -9 27 -22 44 -30 35 -17 124
-97 143 -129 7 -11 17 -32 24 -46 6 -14 20 -43 31 -66 12 -26 18 -56 16 -83
l-3 -42 -454 1 c-250 0 -457 3 -462 6 -14 8 3 108 23 133 10 13 18 31 18 41 0
9 9 25 20 35 11 10 20 23 20 29 0 15 110 126 125 126 7 0 20 9 30 20 11 12 31
20 49 20 17 0 54 9 81 20 59 24 133 22 184 -3z M6185 5650 c-11 -5 -35 -9 -52
-9 -44 -1 -118 -20 -170 -42 -24 -11 -51 -19 -61 -19 -11 0 -27 -9 -37 -20
-10 -11 -28 -20 -39 -20 -12 0 -28 -9 -36 -20 -8 -11 -21 -20 -30 -20 -9 0
-44 -29 -80 -65 -35 -35 -67 -62 -72 -59 -4 3 -8 42 -8 87 -1 56 -6 93 -18
117 l-17 35 -225 3 c-219 3 -225 2 -242 -19 -17 -20 -18 -81 -18 -974 0 -948
0 -952 21 -979 l20 -26 246 0 c222 0 247 2 259 18 11 14 13 119 14 531 0 547
8 680 41 717 11 11 19 28 19 37 0 9 9 22 20 29 11 7 20 16 20 21 0 12 97 107
110 107 5 0 10 4 10 8 0 5 36 27 80 50 76 40 84 42 166 42 65 0 92 -4 112 -17
15 -10 36 -23 47 -29 31 -17 91 -102 104 -147 7 -23 17 -56 22 -73 5 -17 9
-296 9 -650 0 -469 3 -623 12 -632 9 -9 83 -12 270 -12 246 0 258 1 268 20 15
29 8 1357 -8 1425 -7 28 -16 80 -21 116 -4 36 -16 83 -26 105 -47 108 -79 165
-96 175 -10 5 -19 16 -19 24 0 8 -7 15 -16 15 -9 0 -18 9 -21 20 -3 11 -11 20
-18 20 -6 0 -20 9 -30 20 -10 11 -24 20 -32 20 -13 0 -54 20 -63 31 -3 3 -21
9 -40 13 -19 4 -60 12 -90 17 -74 15 -260 20 -285 9z M7958 5655 c-4 -4 -33
-11 -65 -16 -123 -18 -141 -22 -195 -50 -10 -5 -26 -9 -36 -9 -11 0 -27 -9
-37 -20 -10 -11 -28 -20 -40 -20 -12 0 -30 -9 -40 -20 -10 -11 -22 -20 -27
-20 -15 0 -132 -123 -148 -155 -8 -16 -22 -42 -32 -57 -10 -14 -18 -35 -18
-47 0 -11 -9 -35 -20 -53 -18 -29 -20 -50 -20 -178 0 -129 3 -148 20 -170 11
-14 20 -31 20 -38 0 -19 52 -91 97 -134 39 -38 147 -108 167 -108 6 0 22 -9
36 -20 14 -11 38 -20 53 -20 16 0 40 -9 54 -20 14 -11 41 -20 59 -20 18 0 49
-9 69 -20 20 -11 49 -20 65 -20 29 0 38 -3 87 -28 13 -7 30 -12 40 -12 9 0 44
-9 77 -21 115 -39 147 -55 196 -97 38 -31 40 -37 40 -88 0 -42 -6 -63 -26 -94
-15 -22 -32 -40 -39 -40 -6 0 -20 -9 -30 -20 -17 -19 -31 -20 -199 -20 -164 0
-183 2 -206 20 -14 11 -37 20 -51 20 -15 0 -53 14 -84 30 -31 17 -63 30 -71
30 -8 0 -14 4 -14 8 0 5 -16 14 -35 22 -20 8 -43 22 -52 32 -9 10 -21 18 -28
18 -7 0 -20 9 -30 20 -10 11 -23 20 -30 20 -7 0 -20 9 -30 20 -10 11 -24 20
-31 20 -15 0 -84 -78 -84 -95 0 -7 -9 -20 -20 -30 -11 -10 -20 -28 -20 -40 0
-12 -9 -30 -20 -40 -11 -10 -20 -25 -20 -33 0 -9 -9 -25 -19 -36 -20 -22 -24
-39 -22 -93 1 -20 6 -33 14 -33 7 0 26 -13 42 -30 16 -16 34 -30 41 -30 6 0
17 -7 24 -15 7 -9 28 -23 46 -31 19 -9 34 -20 34 -25 0 -5 12 -9 28 -9 15 0
38 -9 52 -20 14 -11 36 -20 50 -20 14 0 36 -9 50 -20 14 -11 37 -20 53 -20 15
0 35 -4 45 -9 42 -21 70 -30 112 -35 278 -34 326 -36 460 -18 146 20 163 24
197 43 19 11 46 19 62 19 15 0 36 9 46 20 10 11 26 20 35 20 9 0 25 9 35 20
10 11 24 20 30 20 17 0 125 100 125 116 0 7 9 18 20 24 11 6 20 19 20 28 0 10
9 28 20 40 11 12 20 33 20 47 0 14 5 34 10 45 6 11 15 29 20 40 6 11 10 78 10
150 0 72 -4 139 -10 150 -5 11 -14 29 -20 40 -5 11 -10 29 -10 40 0 11 -9 25
-20 32 -11 7 -20 18 -20 24 0 30 -154 164 -189 164 -10 0 -26 9 -36 20 -10 11
-28 20 -39 20 -12 0 -32 9 -46 20 -14 11 -37 20 -52 20 -15 0 -42 9 -60 20
-18 11 -48 20 -66 20 -18 0 -40 4 -50 9 -49 25 -83 35 -160 48 -18 3 -35 9
-38 14 -3 5 -16 9 -29 9 -13 0 -27 5 -30 10 -3 6 -18 10 -33 10 -15 0 -38 9
-52 20 -14 11 -34 20 -46 20 -36 0 -94 79 -94 127 1 68 57 153 102 153 10 0
36 9 58 20 29 15 59 20 114 20 52 0 88 -6 121 -20 26 -11 63 -20 83 -20 21 0
48 -9 62 -20 14 -11 32 -20 41 -20 23 0 130 -66 175 -106 49 -46 98 -45 125 1
10 17 18 38 18 48 1 9 4 17 9 17 8 0 32 48 32 65 0 5 9 16 20 23 11 7 20 21
20 32 0 10 8 25 18 32 33 23 39 128 7 128 -6 0 -20 9 -30 20 -10 11 -24 20
-31 20 -7 0 -18 9 -24 20 -6 11 -19 20 -29 20 -10 0 -26 9 -36 20 -10 11 -30
20 -45 20 -15 0 -35 9 -45 20 -10 11 -31 20 -47 20 -15 0 -36 4 -46 9 -48 24
-71 31 -212 57 -50 9 -294 16 -302 9z M9980 5650 c-14 -4 -44 -8 -67 -9 -24
-1 -64 -6 -90 -12 -48 -12 -64 -17 -116 -38 -15 -6 -36 -11 -46 -11 -10 0 -26
-9 -36 -20 -10 -11 -28 -20 -40 -20 -12 0 -30 -9 -40 -20 -10 -11 -25 -20 -34
-20 -9 0 -22 -9 -29 -20 -7 -11 -18 -20 -25 -20 -6 0 -35 -23 -64 -50 -29 -28
-57 -50 -63 -50 -5 0 -10 -7 -10 -16 0 -9 -9 -18 -20 -21 -11 -3 -20 -10 -20
-17 0 -6 -13 -23 -29 -38 -15 -16 -34 -40 -42 -55 -8 -16 -26 -48 -41 -72 -16
-25 -28 -53 -28 -63 0 -10 -3 -18 -7 -18 -12 0 -33 -51 -33 -78 0 -13 -9 -36
-19 -51 -46 -64 -45 -546 2 -611 9 -13 17 -34 17 -46 0 -19 18 -64 53 -129 6
-11 21 -41 34 -67 13 -25 31 -52 38 -58 8 -7 15 -18 15 -24 0 -13 166 -177
227 -224 23 -18 48 -32 56 -32 8 0 22 -9 32 -20 10 -11 28 -20 39 -20 12 0 32
-9 46 -20 14 -11 33 -20 42 -20 10 0 32 -8 50 -18 18 -10 53 -22 78 -26 25 -4
72 -12 105 -18 33 -6 110 -11 170 -11 98 0 145 5 290 29 21 4 54 15 72 25 19
11 46 19 62 19 15 0 36 9 46 20 10 11 28 20 40 20 12 0 30 9 40 20 10 11 29
20 42 20 12 0 23 4 23 8 0 5 12 15 28 23 32 16 172 153 172 168 0 6 9 15 20
21 11 6 20 17 20 25 0 8 3 15 8 15 8 0 11 6 51 84 13 25 27 49 32 52 5 3 9 15
9 27 0 12 9 33 20 47 11 14 20 37 20 52 0 15 9 43 19 61 46 82 45 495 0 591
-11 22 -19 51 -19 65 0 14 -9 37 -20 51 -11 14 -20 35 -20 47 0 12 -5 25 -10
28 -6 3 -18 23 -28 43 -29 58 -45 84 -74 117 -16 16 -28 33 -28 37 0 21 -189
180 -235 198 -12 4 -27 15 -34 24 -7 9 -23 16 -35 16 -11 0 -32 9 -46 20 -14
11 -32 20 -41 20 -9 0 -34 7 -55 17 -95 40 -407 76 -474 53z m200 -467 c41 -4
73 -12 85 -23 11 -9 37 -24 57 -34 38 -17 146 -129 169 -175 7 -14 21 -38 31
-53 10 -14 18 -39 18 -55 0 -16 9 -48 20 -71 16 -33 20 -61 20 -152 0 -60 -4
-119 -10 -130 -5 -11 -14 -29 -20 -40 -5 -11 -10 -30 -10 -42 0 -56 -131 -248
-169 -248 -6 0 -11 -4 -11 -9 0 -7 -88 -53 -153 -80 -33 -13 -189 -15 -215 -3
-9 5 -27 14 -39 20 -13 7 -28 12 -33 12 -21 0 -128 80 -171 128 -49 55 -109
163 -109 198 0 12 -4 25 -8 28 -5 3 -14 36 -22 74 -13 71 -10 153 10 232 6 25
14 58 17 75 3 16 15 45 26 65 11 19 27 48 35 63 8 16 20 31 28 34 8 3 14 10
14 16 0 13 87 94 120 111 14 7 42 22 63 34 21 13 56 22 80 23 23 0 51 4 62 9
11 5 27 6 35 3 8 -3 44 -7 80 -10z M17905 5650 c-11 -5 -37 -9 -57 -9 -37 -1
-55 -6 -138 -44 -82 -36 -90 -40 -90 -49 0 -4 -7 -8 -15 -8 -8 0 -25 -10 -38
-22 -13 -13 -46 -43 -75 -68 -28 -25 -52 -51 -52 -57 0 -7 -9 -18 -20 -25 -11
-7 -20 -21 -20 -30 0 -10 -4 -18 -10 -18 -6 0 -10 48 -10 125 0 99 -3 131 -16
150 l-16 25 -233 0 c-196 0 -235 -2 -245 -15 -20 -24 -19 -1931 1 -1963 14
-22 16 -22 269 -22 186 0 259 3 268 12 9 9 12 159 12 613 0 589 0 602 20 620
11 10 20 24 20 30 0 21 132 145 154 145 12 0 32 9 46 20 14 11 33 20 43 20 9
0 25 4 35 9 47 24 76 30 191 40 69 6 127 14 130 17 9 8 14 391 6 441 -5 34
-12 46 -35 58 -31 16 -93 19 -125 5z M14585 5611 c-3 -5 -6 -333 -7 -728 -1
-717 -1 -718 20 -762 12 -25 22 -61 22 -80 0 -20 9 -47 20 -61 11 -14 20 -37
20 -52 0 -17 8 -33 20 -40 11 -7 20 -20 20 -29 0 -19 135 -159 154 -159 7 0
21 -9 31 -20 10 -11 24 -20 31 -20 7 0 28 -8 46 -18 61 -34 265 -68 340 -57
29 4 80 11 113 15 96 13 132 23 187 51 10 5 26 9 36 9 11 0 27 9 37 20 10 11
23 20 30 20 7 0 20 9 30 20 10 11 26 20 36 20 10 0 23 9 29 20 6 11 16 20 23
20 19 0 117 103 117 123 0 9 5 17 10 17 6 0 10 -14 10 -30 0 -17 8 -49 19 -73
10 -23 24 -57 31 -75 7 -18 21 -37 31 -43 11 -5 19 -16 19 -24 0 -8 5 -15 11
-15 6 0 23 -9 38 -19 54 -38 230 -53 357 -29 62 11 65 13 74 47 13 53 15 370
1 404 -6 15 -21 31 -34 36 -57 22 -56 0 -60 908 -3 542 -4 573 -21 592 -18 20
-29 21 -263 21 -230 0 -244 -1 -263 -20 -20 -20 -20 -33 -20 -633 0 -601 0
-614 -20 -632 -11 -10 -20 -22 -20 -26 0 -11 -69 -103 -81 -107 -4 -2 -25 -19
-46 -38 -34 -31 -54 -43 -128 -75 -96 -40 -184 -38 -292 8 -35 15 -133 120
-133 143 0 19 -24 87 -33 96 -4 4 -7 289 -7 634 0 473 -3 629 -12 638 -15 15
-514 17 -523 3z M6185 2571 c-3 -6 -19 -11 -35 -11 -16 0 -32 -4 -35 -10 -3
-5 -16 -10 -28 -10 -12 0 -33 -9 -47 -20 -14 -11 -32 -20 -41 -20 -9 0 -24 -9
-34 -20 -10 -11 -24 -20 -30 -20 -18 0 -175 -162 -175 -180 0 -8 -9 -21 -20
-28 -11 -7 -20 -23 -20 -36 0 -12 -9 -31 -20 -41 -11 -10 -20 -30 -20 -45 0
-15 -8 -42 -17 -61 -44 -85 -45 -369 -2 -466 11 -24 19 -53 19 -66 0 -13 9
-32 20 -42 11 -10 20 -26 20 -35 0 -9 9 -25 20 -35 11 -10 20 -26 20 -36 0
-10 9 -23 20 -29 11 -6 20 -15 20 -19 0 -10 66 -81 75 -81 3 0 25 -18 47 -40
23 -22 52 -40 63 -40 12 0 30 -9 40 -20 10 -11 29 -20 41 -20 13 0 39 -9 59
-20 31 -17 54 -20 165 -20 111 0 134 3 165 20 20 11 48 20 64 20 15 0 36 9 46
20 10 11 25 20 33 20 14 0 133 95 140 112 2 5 8 8 13 8 5 0 9 -55 9 -123 0
-103 -3 -130 -20 -165 -11 -22 -20 -46 -20 -52 0 -7 -8 -24 -18 -38 -10 -15
-22 -35 -25 -44 -4 -10 -13 -18 -20 -18 -8 0 -20 -7 -27 -15 -7 -9 -29 -23
-49 -32 -20 -9 -38 -20 -41 -23 -19 -25 -307 -40 -375 -19 -54 16 -165 70
-165 80 0 5 -6 9 -13 9 -7 0 -41 27 -76 60 -82 78 -105 79 -178 10 -47 -43
-53 -53 -53 -89 0 -30 5 -44 20 -53 11 -7 20 -17 20 -22 0 -12 102 -106 116
-106 6 0 19 -9 29 -20 10 -11 28 -20 40 -20 12 0 30 -9 40 -20 10 -11 29 -20
42 -20 13 0 42 -9 66 -19 61 -27 124 -36 277 -35 129 0 191 6 235 24 11 4 33
13 48 19 15 6 36 11 46 11 10 0 30 9 44 20 14 11 34 20 46 20 11 0 25 9 31 20
6 11 18 20 27 20 9 0 26 10 38 23 13 12 39 36 58 54 19 18 42 47 50 66 9 19
23 40 32 47 8 7 15 25 15 41 0 16 9 43 20 61 19 32 20 51 20 810 l0 776 -57 7
c-51 5 -171 0 -179 -8 -2 -2 -5 -44 -6 -95 -2 -50 -5 -92 -8 -92 -3 0 -30 25
-60 55 -30 30 -59 55 -66 55 -6 0 -19 9 -29 20 -10 11 -23 20 -30 20 -7 0 -20
9 -30 20 -10 11 -28 20 -41 20 -13 0 -25 4 -28 9 -9 14 -71 23 -198 28 -75 3
-118 0 -123 -6z m284 -262 c72 -23 91 -32 91 -40 0 -5 6 -9 14 -9 23 0 134
-119 161 -173 25 -50 25 -55 25 -282 0 -219 -1 -233 -20 -250 -11 -10 -20 -22
-20 -27 0 -15 -53 -68 -67 -68 -7 0 -13 -7 -13 -15 0 -9 -10 -19 -23 -24 -13
-5 -29 -16 -36 -25 -7 -9 -23 -16 -35 -16 -11 0 -36 -9 -54 -20 -47 -29 -207
-29 -254 0 -18 11 -42 20 -54 20 -11 0 -29 9 -39 20 -10 11 -22 20 -26 20 -14
0 -119 109 -119 124 0 7 -9 21 -20 31 -11 10 -20 27 -20 37 0 10 -9 38 -20 60
-17 35 -20 62 -20 165 0 104 3 128 20 158 11 20 20 49 20 65 0 19 7 33 20 40
11 6 20 19 20 29 0 29 94 117 157 146 32 15 65 31 73 35 22 13 198 12 239 -1z
M8869 2575 c-4 -3 -31 -10 -60 -16 -30 -5 -67 -13 -84 -16 -16 -3 -42 -14 -57
-24 -14 -11 -35 -19 -45 -19 -11 0 -28 -9 -38 -20 -10 -11 -22 -20 -27 -20
-21 0 -116 -85 -159 -141 -15 -19 -39 -47 -53 -64 -14 -16 -26 -37 -26 -46 0
-9 -9 -24 -20 -34 -11 -10 -20 -29 -20 -43 0 -13 -8 -36 -19 -50 -45 -65 -45
-440 0 -503 10 -15 19 -38 19 -51 0 -14 9 -33 20 -43 11 -10 20 -27 20 -38 0
-10 19 -42 41 -71 47 -57 147 -156 158 -156 5 0 16 -9 26 -20 10 -11 25 -20
34 -20 9 0 27 -9 41 -20 14 -11 33 -20 42 -20 10 0 32 -8 50 -19 84 -47 433
-47 500 0 14 11 37 19 50 19 12 0 34 9 48 20 14 11 29 20 34 20 17 0 176 144
176 159 0 4 9 16 20 26 11 10 20 23 20 30 0 7 9 20 20 30 11 10 20 25 20 34 0
9 9 27 20 41 11 14 20 32 20 40 0 8 9 40 20 70 28 75 38 216 23 310 -19 114
-25 140 -34 146 -5 3 -9 15 -9 27 0 12 -9 33 -20 47 -11 14 -20 30 -20 37 0 7
-15 33 -32 58 -18 26 -38 56 -44 67 -19 32 -97 109 -121 119 -13 5 -23 15 -23
24 0 8 -8 15 -18 15 -11 0 -27 9 -37 20 -10 11 -28 20 -40 20 -12 0 -34 9 -48
20 -14 11 -36 20 -49 20 -13 0 -28 4 -33 9 -18 17 -272 40 -286 26z m190 -267
c58 -18 138 -57 151 -73 7 -8 18 -15 26 -15 16 0 84 -82 84 -102 0 -8 9 -23
20 -33 11 -10 20 -31 20 -46 0 -15 5 -31 10 -34 6 -3 10 -17 10 -30 0 -13 5
-27 10 -30 12 -8 13 -202 1 -209 -5 -3 -11 -20 -14 -38 -10 -62 -25 -109 -41
-127 -9 -10 -16 -25 -16 -34 0 -9 -9 -22 -20 -29 -11 -7 -20 -17 -20 -21 0
-12 -56 -67 -68 -67 -5 0 -17 -9 -27 -20 -10 -11 -25 -20 -34 -20 -9 0 -29 -9
-46 -20 -26 -17 -47 -20 -155 -20 -109 0 -128 3 -150 20 -14 11 -32 20 -40 20
-20 0 -160 127 -160 144 0 7 -9 21 -20 31 -11 10 -20 30 -20 44 0 14 -9 37
-20 51 -17 22 -20 42 -20 176 0 136 2 154 20 177 11 14 20 36 20 50 0 13 9 32
20 42 11 10 20 24 20 32 0 7 5 13 10 13 6 0 10 6 10 13 0 18 90 101 128 118
18 8 32 17 32 21 0 5 9 8 19 8 11 0 23 5 26 10 9 14 190 13 234 -2z M12187
2574 c-3 -4 -23 -10 -44 -15 -87 -19 -99 -23 -122 -40 -13 -11 -31 -19 -41
-19 -9 0 -25 -9 -35 -20 -10 -11 -23 -20 -29 -20 -7 0 -32 -20 -56 -45 -24
-24 -47 -42 -52 -39 -4 3 -8 36 -8 73 0 91 -7 96 -129 96 -53 0 -104 -3 -113
-7 -17 -7 -18 -64 -18 -991 0 -751 3 -986 12 -995 17 -17 239 -17 256 0 9 9
12 108 12 385 0 205 3 373 6 373 4 0 12 -6 18 -13 21 -26 133 -117 143 -117 5
0 18 -9 28 -20 10 -11 27 -20 38 -20 10 0 31 -8 45 -19 68 -48 359 -45 452 4
34 18 47 25 103 53 15 7 27 18 27 23 0 5 11 14 24 18 35 14 156 162 156 193 0
7 9 24 20 38 11 14 20 36 20 48 0 13 8 36 19 50 23 33 34 120 34 272 0 144
-11 225 -34 268 -11 18 -19 43 -19 56 0 12 -9 31 -20 41 -11 10 -20 26 -20 35
0 9 -9 25 -20 35 -11 10 -20 23 -20 29 0 15 -160 176 -175 176 -6 0 -20 9 -30
20 -10 11 -26 20 -37 20 -10 0 -18 3 -18 8 0 8 -36 24 -95 42 -22 7 -50 16
-63 21 -26 10 -205 12 -215 3z m165 -269 c20 -4 44 -16 54 -26 9 -10 24 -19
33 -19 20 0 141 -107 141 -124 0 -7 9 -21 20 -31 11 -10 20 -30 20 -44 0 -14
9 -37 20 -51 18 -22 20 -41 20 -185 0 -144 -2 -163 -20 -185 -11 -14 -20 -35
-20 -48 0 -44 -154 -212 -194 -212 -9 0 -30 -9 -48 -20 -48 -29 -222 -29 -270
0 -18 11 -39 20 -45 20 -26 0 -203 165 -203 189 0 9 -9 41 -21 71 -19 49 -21
72 -17 220 3 132 7 172 21 199 9 19 17 40 17 48 0 7 28 43 63 79 93 98 181
134 312 129 44 -2 97 -6 117 -10z M7462 2550 c-29 -4 -59 -13 -67 -20 -13 -11
-15 -104 -15 -695 0 -817 -17 -735 150 -735 163 0 150 -42 150 474 0 437 3
470 43 514 9 10 17 22 17 26 0 13 99 106 113 106 8 0 22 9 32 20 12 13 31 20
55 20 20 0 40 3 44 7 10 10 96 32 127 33 14 0 35 11 47 23 20 22 22 32 18 109
-6 124 -10 128 -105 128 -82 0 -129 -11 -173 -42 -14 -10 -33 -18 -40 -18 -8
0 -23 -9 -33 -20 -10 -11 -23 -20 -30 -20 -13 0 -89 -71 -111 -105 -24 -36
-31 -24 -28 47 1 35 -2 80 -7 100 -8 32 -15 39 -47 46 -45 11 -71 11 -140 2z
M10971 2548 c-24 -4 -49 -12 -57 -19 -11 -9 -14 -95 -17 -447 -3 -241 -8 -454
-12 -474 -4 -20 -16 -44 -26 -54 -10 -9 -19 -23 -19 -30 0 -16 -140 -144 -158
-144 -8 0 -26 -8 -40 -19 -53 -36 -252 -36 -291 0 -11 11 -24 19 -28 19 -13 1
-63 48 -63 60 0 6 -8 23 -17 37 -37 56 -42 124 -42 590 l-1 453 -25 16 c-31
20 -212 17 -238 -5 -15 -12 -17 -61 -17 -513 0 -484 3 -549 32 -618 6 -14 15
-36 20 -50 6 -14 14 -32 19 -40 5 -8 16 -29 24 -46 16 -35 85 -100 125 -117
14 -6 36 -19 50 -28 33 -22 95 -31 210 -31 129 0 200 11 232 33 14 11 35 19
45 19 11 0 28 9 38 20 10 11 25 20 34 20 9 0 34 16 56 35 22 20 52 43 68 52
15 10 27 23 27 30 0 7 6 13 14 13 8 0 16 -15 20 -37 9 -49 46 -124 66 -131 8
-3 27 -14 42 -24 20 -14 45 -18 112 -18 104 0 106 2 106 127 0 87 -1 89 -29
106 l-29 17 -7 257 c-4 142 -4 395 -1 562 4 196 3 316 -4 335 -6 18 -21 36
-37 43 -30 13 -111 14 -182 1z"/>
</g>
</svg>
